<svg width="46" height="49" viewBox="0 0 46 49" fill="none" xmlns="http://www.w3.org/2000/svg">
<path d="M21.4219 30.625C22.2762 30.625 22.9688 31.3176 22.9688 32.1719C22.9688 33.0262 22.2762 33.7188 21.4219 33.7188C20.5676 33.7188 19.875 33.0262 19.875 32.1719C19.875 31.3176 20.5676 30.625 21.4219 30.625ZM27.0469 30.625C27.9012 30.625 28.5938 31.3176 28.5938 32.1719C28.5938 33.0262 27.9012 33.7188 27.0469 33.7188C26.1926 33.7188 25.5 33.0262 25.5 32.1719C25.5 31.3176 26.1926 30.625 27.0469 30.625ZM21.4219 31.4688C21.0335 31.4688 20.7188 31.7835 20.7188 32.1719C20.7188 32.5602 21.0335 32.875 21.4219 32.875C21.8102 32.875 22.125 32.5602 22.125 32.1719C22.125 31.7835 21.8102 31.4688 21.4219 31.4688ZM27.0469 31.4688C26.6585 31.4688 26.3438 31.7835 26.3438 32.1719C26.3438 32.5602 26.6585 32.875 27.0469 32.875C27.4352 32.875 27.75 32.5602 27.75 32.1719C27.75 31.7835 27.4352 31.4688 27.0469 31.4688ZM17.6484 25.5625H29.0361L31.9893 19.6562H19.7344C19.5014 19.6562 19.3125 19.4674 19.3125 19.2344C19.3125 19.0014 19.5014 18.8125 19.7344 18.8125H32.6719C32.8181 18.8125 32.9544 18.8883 33.0312 19.0127C33.1079 19.137 33.1142 19.2932 33.0488 19.4238L29.6738 26.1738C29.6022 26.3163 29.4564 26.4062 29.2969 26.4062H17.8828L17.8887 26.4287C18.1781 27.2962 18.3418 27.6997 18.7197 27.9551C19.1203 28.2254 19.8381 28.375 21.4219 28.375H29.2969C29.5299 28.375 29.7188 28.5639 29.7188 28.7969C29.7188 29.0299 29.5299 29.2188 29.2969 29.2188H21.4219C19.8566 29.2188 18.8873 29.0867 18.2471 28.6543C17.5866 28.208 17.3549 27.4894 17.085 26.6797L17.0781 26.6602L14.3516 16.8438H12.4219C12.1889 16.8438 12 16.6549 12 16.4219C12 16.1889 12.1889 16 12.4219 16H14.9932L17.6484 25.5625Z" fill="black"/>
</svg>
