<svg width="46" height="49" viewBox="0 0 46 49" fill="none" xmlns="http://www.w3.org/2000/svg">
<path d="M28.5713 15C28.9816 15 29.3145 15.3329 29.3145 15.7432V19.457H32.2861C33.5167 19.4573 34.5146 20.455 34.5146 21.6855V24.543C34.5149 24.808 34.6562 25.053 34.8857 25.1855C35.575 25.5836 35.9998 26.3193 36 27.1152V29.8574C35.9998 31.0881 35.0022 32.0859 33.7715 32.0859H33.6738C33.3436 33.3669 32.1839 34.3145 30.7998 34.3145C29.4129 34.3144 28.2513 33.3631 27.9238 32.0781C27.8926 32.0821 27.8605 32.0859 27.8281 32.0859H18.9141C18.8812 32.0859 18.8491 32.0823 18.8174 32.0781C18.4897 33.3629 17.3292 34.3145 15.9424 34.3145C14.5585 34.3142 13.3996 33.3668 13.0693 32.0859H10.7432C10.3329 32.0859 10 31.753 10 31.3428C10 30.9325 10.3329 30.5996 10.7432 30.5996H13.0693C13.3996 29.3189 14.5585 28.3713 15.9424 28.3711C17.3288 28.3711 18.4894 29.3222 18.8174 30.6064C18.849 30.6023 18.8813 30.5996 18.9141 30.5996H27.8281C27.8604 30.5996 27.8926 30.6024 27.9238 30.6064C28.2517 29.322 29.4133 28.3712 30.7998 28.3711C32.1839 28.3711 33.3435 29.3187 33.6738 30.5996H33.7715C34.1816 30.5996 34.5145 30.2675 34.5146 29.8574V27.1152C34.5144 26.8501 34.3722 26.6053 34.1426 26.4727C33.4533 26.0747 33.0286 25.3389 33.0283 24.543V21.6855C33.0282 21.2755 32.6962 20.9426 32.2861 20.9424H29.3145V26.1426C29.3145 26.5528 28.9816 26.8857 28.5713 26.8857C28.1611 26.8857 27.8281 26.5528 27.8281 26.1426V16.4854H15.2002C14.79 16.4854 14.4572 16.1533 14.457 15.7432C14.457 15.3329 14.7899 15 15.2002 15H28.5713ZM15.9424 29.8574C15.1221 29.8577 14.4571 30.5224 14.457 31.3428C14.457 32.1632 15.1221 32.8279 15.9424 32.8281C16.7629 32.8281 17.4287 32.1633 17.4287 31.3428C17.4287 30.5223 16.7629 29.8574 15.9424 29.8574ZM30.7998 29.8574C29.9794 29.8575 29.3145 30.5223 29.3145 31.3428C29.3145 32.1632 29.9794 32.828 30.7998 32.8281C31.6203 32.8281 32.2861 32.1633 32.2861 31.3428C32.2861 30.5223 31.6203 29.8574 30.7998 29.8574ZM18.9141 23.1719C19.3243 23.1719 19.6571 23.5039 19.6572 23.9141C19.6572 24.3243 19.3243 24.6572 18.9141 24.6572H10.7432C10.3329 24.6572 10 24.3243 10 23.9141C10.0001 23.5039 10.333 23.1719 10.7432 23.1719H18.9141ZM20.4004 19.457C20.8105 19.4572 21.1426 19.7901 21.1426 20.2002C21.1425 20.6102 20.8104 20.9422 20.4004 20.9424H11.4854C11.0753 20.9422 10.7433 20.6103 10.7432 20.2002C10.7432 19.79 11.0752 19.4572 11.4854 19.457H20.4004Z" fill="black"/>
</svg>
