<svg width="37" height="37" viewBox="0 0 37 37" fill="none" xmlns="http://www.w3.org/2000/svg">
<g clip-path="url(#clip0_59_464)">
<path d="M26.325 22.8233C26.325 22.8385 26.325 22.8537 26.325 22.8689C26.2839 23.1211 26.2095 23.3642 26.1396 23.6088C26.1062 23.6574 26.094 23.7136 26.0773 23.7668C26.0697 23.7895 26.0606 23.8108 26.053 23.8336L26.0469 23.8382L26.0499 23.8442C26.0059 23.9384 25.9618 24.0326 25.9162 24.1253C25.8843 24.1572 25.8676 24.1967 25.8524 24.2392C25.7749 24.3638 25.6959 24.4899 25.6184 24.6145C25.5287 24.7284 25.4391 24.8424 25.3494 24.9548C25.3206 24.9852 25.2917 25.0156 25.2644 25.0459C25.1899 25.1204 25.1154 25.1948 25.041 25.2693C25.0106 25.2981 24.9802 25.327 24.9498 25.3544C24.8359 25.444 24.7219 25.5336 24.6095 25.6233C24.4849 25.7007 24.3587 25.7797 24.2341 25.8572C24.1962 25.8785 24.1582 25.8982 24.1202 25.9195C24.026 25.9651 23.9333 26.0091 23.8391 26.0547H23.833L23.8284 26.0578C23.8056 26.0654 23.7844 26.0745 23.7616 26.0821C23.7054 26.0957 23.6507 26.1109 23.6036 26.1459C23.444 26.1899 23.2845 26.2401 23.1234 26.2765C22.7967 26.3494 22.4655 26.3768 22.1312 26.3738C22.0674 26.3738 22.0051 26.3753 21.9412 26.3768C21.9336 26.3768 21.926 26.3768 21.9184 26.3768H21.5811C21.5735 26.3768 21.5659 26.3768 21.5583 26.3768H21.2666C21.259 26.3768 21.2514 26.3768 21.2438 26.3768H20.9065C20.8989 26.3768 20.8913 26.3768 20.8837 26.3768H20.5919C20.5843 26.3768 20.5767 26.3768 20.5691 26.3768H20.2318C20.2242 26.3768 20.2166 26.3768 20.209 26.3768H19.9173C19.9097 26.3768 19.9021 26.3768 19.8945 26.3768H19.5572C19.5496 26.3768 19.542 26.3768 19.5344 26.3768H19.2426C19.235 26.3768 19.2274 26.3768 19.2198 26.3768H18.8825C18.8749 26.3768 18.8673 26.3768 18.8597 26.3768C18.7625 26.3768 18.6652 26.3768 18.568 26.3768C18.5604 26.3768 18.5528 26.3768 18.5452 26.3768H18.2079C18.2003 26.3768 18.1927 26.3768 18.1851 26.3768H17.8933C17.8857 26.3768 17.8781 26.3768 17.8705 26.3768H17.5332C17.5256 26.3768 17.518 26.3768 17.5104 26.3768H17.2187C17.2111 26.3768 17.2035 26.3768 17.1959 26.3768H16.8586C16.851 26.3768 16.8434 26.3768 16.8358 26.3768C16.7385 26.3768 16.6413 26.3768 16.544 26.3768C16.5364 26.3768 16.5288 26.3768 16.5212 26.3768H16.1839C16.1763 26.3768 16.1687 26.3768 16.1611 26.3768C16.0639 26.3768 15.9666 26.3768 15.8694 26.3768C15.8618 26.3768 15.8542 26.3768 15.8466 26.3768H15.5092C15.5016 26.3768 15.4941 26.3768 15.4865 26.3768H15.1947C15.1871 26.3768 15.1795 26.3768 15.1719 26.3768H14.8346C14.827 26.3768 14.8194 26.3768 14.8118 26.3768H14.5201C14.5125 26.3768 14.5049 26.3768 14.4973 26.3768C14.3408 26.3768 14.1843 26.3738 14.0277 26.3753C13.7482 26.3768 13.4701 26.3494 13.1951 26.3084C13.1799 26.3069 13.1647 26.3054 13.1495 26.3039C12.9246 26.237 12.6997 26.1717 12.4748 26.1049L12.4703 26.1003L12.4642 26.1033C12.4338 26.079 12.3989 26.0669 12.3624 26.0608L12.3578 26.0547L12.3518 26.0578C12.3335 26.0365 12.3107 26.0289 12.2834 26.0289C12.2697 26.0076 12.2499 25.9985 12.2256 25.9955C12.1892 25.9788 12.1527 25.962 12.1162 25.9453C12.1056 25.9271 12.0874 25.9241 12.0691 25.9241C12.0585 25.9074 12.0433 25.8998 12.0235 25.8998C11.9628 25.8648 11.902 25.8299 11.8412 25.7949C11.2243 25.4136 10.7289 24.9107 10.3597 24.2848C10.2412 24.066 10.147 23.8382 10.0482 23.6103C9.99655 23.428 9.94488 23.2457 9.8917 23.0618L9.89626 23.0558L9.8917 23.0497C9.74431 21.7523 9.837 20.4503 9.82484 19.1498C9.80813 17.3921 9.8218 15.6328 9.8218 13.875C9.8218 13.635 9.86739 13.401 9.8917 13.1625L9.89626 13.1564L9.8917 13.1504C9.95704 12.9301 10.0239 12.7098 10.0892 12.4895L10.0938 12.4849L10.0908 12.4789C10.1576 12.333 10.226 12.1872 10.2928 12.0398C10.3263 12.0049 10.3445 11.9608 10.3597 11.9152C10.3962 11.8575 10.4311 11.7998 10.4676 11.742C10.5132 11.6752 10.5588 11.6083 10.6059 11.5415L10.6211 11.5233C10.6211 11.5233 10.6287 11.5096 10.6317 11.502C10.691 11.4427 10.7441 11.3774 10.7882 11.306C10.8399 11.265 10.8809 11.2149 10.9174 11.1617C10.9918 11.0872 11.0678 11.0113 11.1422 10.9368C11.1969 10.9004 11.2456 10.8594 11.2866 10.8077C11.3656 10.7469 11.4446 10.6846 11.5236 10.6239C11.5905 10.5783 11.6558 10.5327 11.7227 10.4871C11.7607 10.4644 11.7987 10.44 11.8382 10.4173C11.8837 10.3899 11.9293 10.3641 11.9749 10.3367C11.9901 10.3276 12.0053 10.32 12.019 10.3109C12.0372 10.3109 12.0539 10.3064 12.0646 10.2881C12.1952 10.2289 12.3274 10.1696 12.4581 10.1104L12.4642 10.1134L12.4688 10.1089C12.6906 10.042 12.9109 9.97516 13.1328 9.90983H13.1419C14.5003 9.76095 15.8618 9.85818 17.2232 9.84299C18.6835 9.82628 20.1422 9.83843 21.6024 9.83691C22.0841 9.83691 22.5673 9.8278 23.0444 9.91135C23.2267 9.96301 23.4075 10.0131 23.5899 10.0648L23.5944 10.0694L23.6005 10.0663C23.6294 10.0921 23.6643 10.1058 23.7023 10.1089L23.7069 10.1149L23.713 10.1119C23.7813 10.1499 23.8512 10.1833 23.9272 10.2015C23.9819 10.241 24.0427 10.2699 24.108 10.2896C24.1171 10.3094 24.1339 10.3124 24.1521 10.3124C24.1612 10.3307 24.1764 10.3352 24.1946 10.3367C24.4864 10.516 24.769 10.7074 25.0228 10.9414C25.3039 11.2027 25.5394 11.499 25.7491 11.8165C25.8083 11.9213 25.8676 12.0276 25.9269 12.1325C25.9481 12.178 25.9694 12.2236 25.9922 12.2692C25.9998 12.2859 26.0074 12.3026 26.0135 12.3193L26.0104 12.3163C26.0195 12.3345 26.0287 12.3528 26.0378 12.371L26.0347 12.3771L26.0408 12.3816C26.0469 12.4196 26.059 12.453 26.0834 12.4834L26.0803 12.4895L26.0849 12.494C26.1593 12.731 26.2383 12.968 26.2885 13.2126C26.2854 13.2856 26.3022 13.3555 26.3265 13.4223C26.3751 14.0102 26.3432 14.6012 26.3569 15.1892C26.3569 15.294 26.3569 15.3988 26.3569 15.5036V16.1782C26.3569 16.2982 26.3569 16.4182 26.3569 16.5367C26.3569 16.6416 26.3569 16.7464 26.3569 16.8512C26.3569 16.9712 26.3569 17.0912 26.3569 17.2097C26.3569 17.3146 26.3569 17.4194 26.3569 17.5242V17.9056C26.3569 18.0104 26.3569 18.1152 26.3569 18.22C26.3569 18.3325 26.3569 18.4449 26.3569 18.5573V19.2318C26.3569 19.3367 26.3569 19.4415 26.3569 19.5463V19.9277C26.3569 20.0325 26.3569 20.1373 26.3569 20.2421C26.3569 20.3622 26.3569 20.4822 26.3569 20.6007V20.8924C26.3553 21.3724 26.3538 21.854 26.3508 22.3341C26.3508 22.4222 26.3386 22.5103 26.3326 22.6C26.3326 22.638 26.3326 22.6759 26.3326 22.7124C26.331 22.7352 26.3295 22.758 26.328 22.7793L26.3234 22.7853L26.328 22.7914C26.3143 22.799 26.3082 22.8081 26.3113 22.8248L26.325 22.8233ZM23.5154 11.5445C23.4926 11.5141 23.4607 11.5035 23.4258 11.499C23.4106 11.4883 23.3984 11.4731 23.3817 11.467C23.017 11.3045 22.6341 11.2164 22.2345 11.2164C19.5769 11.2164 16.9209 11.2164 14.2633 11.2164C14.0764 11.2164 13.8895 11.2118 13.7026 11.2316C13.3941 11.265 13.0948 11.3318 12.8167 11.4777C12.6921 11.5157 12.5842 11.584 12.4809 11.6585C12.3913 11.7086 12.3046 11.7618 12.2332 11.8393C12.2104 11.8423 12.1998 11.8575 12.1907 11.8757C12.063 11.9654 11.9552 12.0747 11.8655 12.2008C11.8473 12.21 11.8321 12.2206 11.829 12.2434C11.7531 12.3148 11.6984 12.3999 11.6482 12.491C11.5723 12.5943 11.5054 12.7037 11.4674 12.8268C11.282 13.1853 11.2091 13.5727 11.2076 13.9707C11.2045 16.6248 11.2061 19.2789 11.2061 21.933C11.2061 22.1245 11.203 22.3144 11.2228 22.5043C11.2532 22.8127 11.3246 23.1104 11.4674 23.3885C11.4689 23.4067 11.4674 23.4249 11.4902 23.434C11.4932 23.469 11.5054 23.5009 11.5358 23.5237C11.5373 23.5419 11.5358 23.5601 11.5586 23.5693C11.6239 23.7136 11.7166 23.8397 11.8154 23.9612C11.9141 24.0797 12.0068 24.2043 12.139 24.2909C12.2363 24.4003 12.3548 24.4823 12.4809 24.5552C12.5007 24.5811 12.528 24.5947 12.5599 24.6023C12.6389 24.6616 12.7225 24.7087 12.8182 24.7375C12.8456 24.7573 12.8745 24.7755 12.9109 24.7801L12.9155 24.7846L12.9216 24.7816C12.9732 24.815 13.031 24.8348 13.0917 24.8454L13.0963 24.8515H13.1039C13.382 24.9578 13.6737 24.9958 13.9685 24.9958C16.6261 24.9973 19.2837 24.9958 21.9412 24.9958C22.1327 24.9958 22.3226 25.0004 22.5126 24.9791C22.7754 24.9502 23.0322 24.8971 23.2738 24.7816C23.5884 24.6737 23.8558 24.4884 24.0974 24.2666C24.3982 23.9901 24.6368 23.6665 24.7796 23.2791C24.8115 23.2289 24.8313 23.1743 24.8419 23.115L24.848 23.1104V23.1028C24.9529 22.8324 24.9924 22.5483 24.9924 22.2612C24.9954 19.4977 24.9954 16.7357 24.9924 13.9723C24.9924 13.6775 24.9559 13.3858 24.8465 13.1078V13.1002L24.8419 13.0957C24.8313 13.0425 24.8237 12.9893 24.7781 12.9513C24.7857 12.9392 24.7857 12.927 24.7751 12.9164C24.731 12.7933 24.6778 12.6733 24.5988 12.5685C24.5988 12.5518 24.5973 12.5381 24.5775 12.5335C24.5669 12.5153 24.5578 12.4986 24.5472 12.4804C24.5472 12.4758 24.5456 12.4713 24.5411 12.4682C24.4681 12.3512 24.3907 12.2388 24.2858 12.1477C24.1946 12.0125 24.07 11.9137 23.9424 11.818C23.83 11.7147 23.7008 11.6342 23.5625 11.5673C23.5549 11.546 23.5352 11.546 23.5185 11.5445H23.5154Z" fill="#D57093"/>
<path d="M23.286 13.1641C23.3833 13.3965 23.4076 13.635 23.359 13.8812C23.3559 13.8948 23.3514 13.9085 23.3483 13.9222C23.3119 14.0042 23.2769 14.0878 23.2405 14.1698C23.2146 14.1865 23.201 14.2108 23.1934 14.2397C23.1417 14.2959 23.09 14.3536 23.0384 14.4098C23.008 14.4326 22.9776 14.4569 22.9472 14.4797C22.8895 14.5132 22.8302 14.5466 22.7725 14.58C22.7481 14.5891 22.7223 14.5982 22.698 14.6058C22.1252 14.7897 21.6465 14.4934 21.4459 14.1242C21.2028 13.6776 21.3046 13.1701 21.7073 12.8177C21.8061 12.7432 21.9155 12.6855 22.031 12.6415C22.0993 12.6263 22.1662 12.6111 22.2346 12.5974C22.4367 12.5852 22.6296 12.6141 22.8165 12.6931C22.8545 12.7144 22.8925 12.7372 22.9305 12.76C22.9381 12.7645 22.9457 12.7691 22.9533 12.7751C22.967 12.7843 22.9806 12.7949 22.9943 12.804C23.011 12.8192 23.0277 12.8329 23.0444 12.8481C23.1402 12.9423 23.2146 13.0532 23.2891 13.1626L23.286 13.1641Z" fill="#D57093"/>
<path d="M19.1227 22.1215C18.8948 22.1579 18.6699 22.2035 18.4404 22.2263C18.287 22.243 18.135 22.2263 17.9816 22.2415C17.9436 22.2415 17.9056 22.2415 17.8691 22.2415C17.5986 22.2187 17.3327 22.1686 17.0668 22.1215C17.0243 22.0926 16.9757 22.0835 16.9255 22.0804C16.9058 22.0622 16.8845 22.0516 16.8587 22.0577C16.7341 22.0106 16.6079 21.965 16.4833 21.9179C16.3846 21.8708 16.2858 21.8237 16.1886 21.7781C16.181 21.7629 16.1673 21.7614 16.1536 21.7629C16.1308 21.7417 16.108 21.7219 16.0746 21.7173C16.026 21.6778 15.9713 21.6459 15.912 21.6216C15.8695 21.5943 15.8254 21.5654 15.7829 21.5381C15.7753 21.532 15.7677 21.5259 15.7585 21.5198C15.7251 21.4955 15.6902 21.4712 15.6567 21.4469L15.5792 21.3877C15.5792 21.3877 15.5686 21.3786 15.561 21.3801C15.4942 21.3026 15.4075 21.2494 15.3316 21.1841C15.2951 21.1522 15.2602 21.1203 15.2237 21.0884C15.1644 21.0276 15.1067 20.9668 15.0474 20.9061C14.9851 20.8332 14.9213 20.7587 14.859 20.6858L14.7602 20.5521C14.666 20.4093 14.5733 20.2665 14.4791 20.1237C14.4791 20.1054 14.4731 20.0887 14.4548 20.0796C14.4244 20.0204 14.394 19.9596 14.3637 19.9003C14.1661 19.4658 14.0324 19.0131 13.9777 18.5391C13.9549 18.5178 13.964 18.489 13.9595 18.4631C13.9731 18.4191 13.961 18.3735 13.9595 18.3295V18.2611C13.9731 18.094 13.9564 17.9269 13.9731 17.7582C13.9959 17.5288 14.0461 17.304 14.0795 17.0761C14.1084 17.0336 14.1175 16.9849 14.1205 16.9348C14.1388 16.9151 14.1494 16.8938 14.1433 16.868C14.2254 16.6401 14.3166 16.4152 14.4229 16.1965C14.4381 16.1889 14.4396 16.1752 14.4366 16.1615C14.4624 16.1205 14.4867 16.081 14.5126 16.04C14.5202 16.0248 14.5262 16.0111 14.5338 15.9959C14.5688 15.9549 14.5992 15.9093 14.6174 15.8577C14.6767 15.7741 14.7359 15.6906 14.7952 15.607C14.8013 15.6009 14.8058 15.5948 14.8119 15.5888L14.8438 15.5447C14.8499 15.5371 14.856 15.528 14.862 15.5204L15.1356 15.2074C15.1568 15.1862 15.1796 15.1634 15.2009 15.1421C15.245 15.1011 15.2905 15.0616 15.3346 15.0206L15.3528 15.0023C15.406 14.9568 15.4592 14.9127 15.5124 14.8671C15.52 14.861 15.5291 14.855 15.5367 14.8489C15.5519 14.8383 15.5656 14.8276 15.5808 14.817C15.5868 14.8109 15.5929 14.8064 15.599 14.8003C15.6826 14.741 15.7661 14.6818 15.8497 14.6225C15.9014 14.6043 15.947 14.5739 15.988 14.539C16.0138 14.5344 16.0381 14.5268 16.0518 14.5025C16.0594 14.4964 16.067 14.4904 16.0761 14.4858C16.108 14.4858 16.1323 14.463 16.1551 14.4433C16.1703 14.4448 16.1825 14.4433 16.1901 14.4296C16.4089 14.3232 16.6338 14.2321 16.8617 14.15C16.889 14.1561 16.9103 14.1455 16.9286 14.1273C16.9787 14.1257 17.0273 14.1151 17.0699 14.0862C17.4528 14.0118 17.8387 13.9541 18.2323 13.9662C18.2551 13.9662 18.2779 13.9662 18.3006 13.9662C18.5787 13.9905 18.8537 14.0346 19.1272 14.0862C19.3871 14.1713 19.6454 14.261 19.8961 14.3734C20.1028 14.4949 20.3079 14.6149 20.5145 14.7365C20.5206 14.7425 20.5267 14.7501 20.5343 14.7562L20.5495 14.7684C20.5951 14.8018 20.6391 14.8352 20.6847 14.8671C20.744 14.9279 20.8063 14.9826 20.8777 15.0282C20.9309 15.0798 20.9856 15.1315 21.0388 15.1831C21.1011 15.25 21.1618 15.3168 21.2241 15.3821C21.2712 15.4475 21.3153 15.5128 21.3776 15.566C21.3822 15.5964 21.4034 15.6146 21.4262 15.6313C21.446 15.6845 21.484 15.724 21.5189 15.7665C21.525 15.7741 21.5311 15.7817 21.5387 15.7908C21.5675 15.8349 21.5949 15.8789 21.6238 15.923C21.6481 15.9807 21.6769 16.0339 21.718 16.0825C21.721 16.1159 21.7423 16.1387 21.7636 16.1615C21.762 16.1767 21.7636 16.1889 21.7788 16.1965C21.8259 16.2952 21.8714 16.3924 21.9185 16.4912C21.9657 16.6173 22.0112 16.7434 22.0583 16.868C22.0523 16.8953 22.0629 16.9166 22.0811 16.9348C22.1146 17.0989 22.1541 17.2614 22.1829 17.4255C22.2437 17.7689 22.2544 18.1122 22.224 18.4601C22.2042 18.6865 22.1556 18.9083 22.1222 19.1316C22.0553 19.3261 21.9869 19.5205 21.9201 19.715C21.8927 19.7758 21.8638 19.8381 21.8365 19.8988L21.8304 19.9034L21.8335 19.9095C21.8228 19.9277 21.8137 19.9459 21.8031 19.9642C21.762 20.0401 21.721 20.1161 21.68 20.192C21.642 20.2528 21.604 20.3136 21.5675 20.3743C21.522 20.4412 21.4764 20.5065 21.4293 20.5734C21.3563 20.6615 21.2834 20.7496 21.2089 20.8377C21.0069 21.0762 20.7637 21.2707 20.5237 21.4697C20.4872 21.4728 20.4674 21.5001 20.4431 21.5214C20.4355 21.5274 20.4279 21.5335 20.4188 21.5411C20.3444 21.5867 20.2699 21.6338 20.1954 21.6794C20.1195 21.7204 20.0435 21.7614 19.9675 21.8039C19.9493 21.8146 19.9311 21.8237 19.9128 21.8343L19.9067 21.8313L19.9022 21.8358C19.8414 21.8632 19.7791 21.8921 19.7183 21.9194C19.5238 21.9862 19.3293 22.0546 19.1348 22.1215H19.1227ZM20.4993 19.4339C20.5206 19.4248 20.5191 19.4051 20.5237 19.3868V19.3899C20.554 19.358 20.5708 19.317 20.5844 19.2744C20.589 19.2699 20.5905 19.2638 20.589 19.2562C20.6422 19.1711 20.6741 19.0784 20.6999 18.9827C20.7242 18.9569 20.7242 18.925 20.7242 18.8931C20.8412 18.5649 20.8671 18.2261 20.8336 17.8813C20.8336 17.8585 20.8321 17.8357 20.8306 17.8129C20.8032 17.5531 20.7501 17.2994 20.6361 17.0624V17.0548L20.6315 17.0503C20.6133 16.9773 20.5768 16.9135 20.5419 16.8482C20.4173 16.5945 20.2562 16.3666 20.0496 16.1721C19.9979 16.1099 19.9432 16.0506 19.8703 16.0111C19.6819 15.8258 19.457 15.6981 19.2169 15.5933C18.7459 15.3745 18.249 15.3107 17.7384 15.373C17.4209 15.4125 17.1154 15.5006 16.8328 15.6586C16.7295 15.7073 16.6292 15.762 16.5426 15.8349C16.535 15.8394 16.5259 15.8455 16.5183 15.8501C16.2463 16.0309 16.0199 16.2572 15.8391 16.5292C15.8345 16.5368 15.8284 16.5459 15.8239 16.5535C15.7494 16.6431 15.6947 16.7434 15.6461 16.8482C15.6309 16.874 15.6142 16.8983 15.602 16.9257C15.3802 17.4058 15.2966 17.9101 15.3574 18.4343C15.3908 18.726 15.4668 19.0101 15.602 19.2729C15.7023 19.4962 15.8239 19.7074 15.9986 19.8821C16.0366 19.955 16.0974 20.0097 16.1597 20.0614C16.3496 20.2619 16.57 20.4214 16.8176 20.543C16.8541 20.5734 16.8982 20.5916 16.9453 20.6022C17.0136 20.6508 17.0896 20.6767 17.1701 20.6964C17.4589 20.8164 17.7643 20.8605 18.0742 20.862C18.3478 20.8635 18.6228 20.8407 18.8826 20.7405C19.0528 20.6964 19.2215 20.6463 19.3643 20.5369C19.3886 20.5399 19.4099 20.5369 19.4235 20.5141H19.4205C19.4357 20.5065 19.4494 20.4989 19.4646 20.4898C19.4919 20.4822 19.5178 20.4701 19.536 20.4473L19.5345 20.4488C19.6363 20.4062 19.7198 20.3364 19.8034 20.265C19.8414 20.2437 19.8748 20.2179 19.8946 20.1784C20.0177 20.1039 20.1088 19.9991 20.1909 19.8852C20.2122 19.8776 20.2258 19.8624 20.2319 19.8396C20.314 19.7515 20.3869 19.6573 20.437 19.5479V19.5509C20.4583 19.5327 20.4705 19.5084 20.4781 19.4795C20.4872 19.4658 20.4948 19.4507 20.5039 19.4355V19.4385L20.4993 19.4339Z" fill="#D57093"/>
<path d="M18.1214 36.1865C8.03657 36.267 -0.0729355 27.9112 -1.3996e-07 17.9769C0.0729353 8.10346 8.14445 0.034817 18.0394 -0.00012535C28.1257 -0.0365869 36.4753 8.32527 36.179 18.65C35.9025 28.3001 27.9175 36.2396 18.1214 36.1865ZM33.959 18.0803C33.9985 9.34771 26.9238 2.05692 17.9573 2.1344C9.29774 2.20884 2.22909 9.2049 2.22149 18.0833C2.21237 27.0452 9.42082 34.1325 18.2232 34.0702C26.8691 34.0079 34.0077 26.9404 33.9605 18.0803H33.959Z" fill="#D57093"/>
</g>
<defs>
<clipPath id="clip0_59_464">
<rect width="36.1866" height="36.1866" fill="white"/>
</clipPath>
</defs>
</svg>
