<svg width="1690" height="107" viewBox="0 0 1690 107" fill="none" xmlns="http://www.w3.org/2000/svg">
<rect width="1690" height="107" fill="#ECE885"/>
<rect x="44.6133" width="45.9239" height="107" fill="#D9B2E3" fill-opacity="0.34"/>
<rect x="251.926" width="45.9239" height="107" fill="#D9B2E3" fill-opacity="0.34"/>
<rect x="148.27" width="45.9239" height="107" fill="#D9B2E3" fill-opacity="0.34"/>
<rect x="355.582" width="45.9239" height="107" fill="#D9B2E3" fill-opacity="0.34"/>
<rect x="459.238" width="45.9239" height="107" fill="#D9B2E3" fill-opacity="0.34"/>
<rect x="562.896" width="45.9239" height="107" fill="#D9B2E3" fill-opacity="0.34"/>
<rect x="1081.18" width="45.9239" height="107" fill="#D9B2E3" fill-opacity="0.34"/>
<rect x="1184.84" width="45.9239" height="107" fill="#D9B2E3" fill-opacity="0.34"/>
<rect x="1288.49" width="45.9239" height="107" fill="#D9B2E3" fill-opacity="0.34"/>
<rect x="1392.15" width="45.9239" height="107" fill="#D9B2E3" fill-opacity="0.34"/>
<rect x="1495.81" width="45.9239" height="107" fill="#D9B2E3" fill-opacity="0.34"/>
<rect x="1599.46" width="45.9239" height="107" fill="#D9B2E3" fill-opacity="0.34"/>
<rect x="666.553" width="45.9239" height="107" fill="#D9B2E3" fill-opacity="0.34"/>
<rect x="770.209" width="45.9239" height="107" fill="#D9B2E3" fill-opacity="0.34"/>
<rect x="873.867" width="45.9239" height="107" fill="#D9B2E3" fill-opacity="0.34"/>
<rect x="977.523" width="45.9239" height="107" fill="#D9B2E3" fill-opacity="0.34"/>
<path d="M1020.75 43.8284L1019.81 50.4304H1019.02C1018.9 48.7212 1018.38 47.3751 1017.44 46.3923C1016.51 45.4094 1015.51 44.918 1014.44 44.918C1013.79 44.918 1013.25 45.1103 1012.82 45.4949C1012.39 45.8795 1012.18 46.3424 1012.18 46.8837C1012.18 47.3395 1012.27 47.7668 1012.46 48.1657C1012.64 48.5645 1013.06 49.1058 1013.7 49.7895C1015.95 52.2109 1017.31 53.8775 1017.8 54.7891C1018.28 55.7007 1018.53 56.6764 1018.53 57.7162C1018.53 58.8415 1018.24 59.9098 1017.67 60.9211C1017.1 61.9182 1016.25 62.723 1015.11 63.3355C1013.98 63.9337 1012.81 64.2328 1011.58 64.2328C1010.76 64.2328 1009.74 64.069 1008.53 63.7414C1007.73 63.5135 1007.13 63.3996 1006.73 63.3996C1006.38 63.3996 1006.1 63.4565 1005.9 63.5705C1005.7 63.6702 1005.48 63.891 1005.24 64.2328H1004.45L1005.49 57.118H1006.18C1006.67 58.8415 1007.14 60.0736 1007.56 60.8143C1008.01 61.5407 1008.59 62.1247 1009.32 62.5663C1010.04 62.9936 1010.74 63.2073 1011.41 63.2073C1012.19 63.2073 1012.84 62.9651 1013.35 62.4808C1013.87 61.9823 1014.12 61.3912 1014.12 60.7075C1014.12 60.038 1013.95 59.3899 1013.61 58.7632C1013.28 58.1364 1012.51 57.1607 1011.3 55.836C1009.64 54.027 1008.54 52.6311 1008.01 51.6483C1007.64 50.9361 1007.46 50.1242 1007.46 49.2126C1007.46 47.6742 1008.01 46.3923 1009.12 45.3667C1010.25 44.3412 1011.82 43.8284 1013.85 43.8284C1014.73 43.8284 1015.81 43.9851 1017.09 44.2984C1017.73 44.4551 1018.25 44.5334 1018.63 44.5334C1019.19 44.5334 1019.64 44.2984 1019.98 43.8284H1020.75Z" fill="#D57093"/>
<path d="M996.967 43.8284C998.092 43.8284 999.147 44.0919 1000.13 44.6189C1001.13 45.1317 1001.87 45.851 1002.37 46.7769C1002.89 47.7027 1003.14 48.7283 1003.14 49.8536C1003.14 52.1611 1002.49 54.4686 1001.2 56.7761C999.916 59.0836 998.221 60.9069 996.113 62.2458C994.004 63.5705 991.882 64.2328 989.746 64.2328C987.808 64.2328 986.306 63.656 985.237 62.5022C984.183 61.3484 983.656 59.9383 983.656 58.2717C983.656 56.2918 984.048 54.4401 984.831 52.7166C985.629 50.9788 986.633 49.469 987.844 48.187C989.069 46.8908 990.472 45.8439 992.053 45.0462C993.634 44.2343 995.272 43.8284 996.967 43.8284ZM996.091 44.9608C995.336 44.9608 994.71 45.1815 994.211 45.6231C993.214 46.5205 992.089 48.6215 990.835 51.9261C989.582 55.2164 988.955 58.1863 988.955 60.8356C988.955 61.4909 989.154 62.0321 989.553 62.4595C989.952 62.8868 990.422 63.1004 990.963 63.1004C991.519 63.1004 992.01 62.9295 992.438 62.5877C993.064 62.0749 993.834 60.9282 994.745 59.1477C995.657 57.353 996.405 55.3802 996.989 53.2294C997.573 51.0643 997.865 49.0844 997.865 47.2896C997.865 46.549 997.687 45.9792 997.33 45.5804C996.974 45.1673 996.561 44.9608 996.091 44.9608Z" fill="#D57093"/>
<path d="M982.951 38.615L981.241 44.4265H984.04L983.293 46.8836H980.536L976.968 59.2758C976.74 60.045 976.626 60.629 976.626 61.0279C976.626 61.213 976.69 61.3768 976.819 61.5193C976.947 61.6475 977.089 61.7116 977.246 61.7116C977.488 61.7116 977.737 61.6119 977.994 61.4124C978.649 60.9139 979.411 60.045 980.28 58.8058L981.028 59.2758C980.045 60.9851 978.962 62.2386 977.78 63.0362C976.598 63.8339 975.437 64.2327 974.298 64.2327C973.329 64.2327 972.574 63.9906 972.033 63.5063C971.506 63.0078 971.242 62.381 971.242 61.6261C971.242 60.7999 971.427 59.7388 971.798 58.4426L975.174 46.8836H972.268L972.695 45.3025C974.518 44.6331 976.057 43.8496 977.31 42.9523C978.564 42.0549 980.073 40.6091 981.84 38.615H982.951Z" fill="#D57093"/>
<path d="M967.396 58.4854L968.037 59.0623C966.655 60.7146 965.295 61.9253 963.956 62.6945C962.175 63.72 960.331 64.2328 958.422 64.2328C957.14 64.2328 956.001 63.9622 955.004 63.4209C954.021 62.8654 953.294 62.0962 952.824 61.1134C952.354 60.1163 952.119 59.0979 952.119 58.0581C952.119 55.7221 952.753 53.4288 954.021 51.1782C955.288 48.9135 956.962 47.1258 959.042 45.8154C961.121 44.4907 963.165 43.8284 965.174 43.8284C966.783 43.8284 967.994 44.1845 968.806 44.8967C969.618 45.6089 970.024 46.492 970.024 47.546C970.024 48.5004 969.718 49.3123 969.105 49.9818C968.493 50.6512 967.809 50.986 967.054 50.986C966.399 50.986 965.85 50.7723 965.409 50.345C964.981 49.9177 964.768 49.412 964.768 48.828C964.768 48.0588 965.152 47.3894 965.922 46.8196C966.449 46.4208 966.712 46.0718 966.712 45.7727C966.712 45.5163 966.605 45.3097 966.392 45.1531C966.107 44.9252 965.736 44.8112 965.281 44.8112C964.084 44.8112 962.959 45.2955 961.905 46.2641C960.509 47.546 959.441 49.1699 958.7 51.1355C957.959 53.1012 957.589 54.9671 957.589 56.7334C957.589 58.1293 957.966 59.2474 958.721 60.0878C959.476 60.914 960.374 61.3271 961.413 61.3271C962.325 61.3271 963.308 61.092 964.362 60.622C965.43 60.1519 966.441 59.4397 967.396 58.4854Z" fill="#D57093"/>
<path d="M938.231 43.8284L934.086 58.3572C933.887 59.0267 933.787 59.4896 933.787 59.746C933.787 59.8742 933.837 59.9739 933.936 60.0451C934.05 60.1591 934.186 60.216 934.342 60.216C934.998 60.216 935.874 59.632 936.97 58.464C938.537 56.769 940.182 54.3333 941.906 51.1569L943.85 44.6189L949.256 44.4266L945.154 58.5281C944.812 59.7246 944.641 60.4083 944.641 60.5793C944.641 60.6932 944.691 60.8143 944.79 60.9425C944.904 61.0564 945.018 61.1134 945.132 61.1134C945.332 61.1134 945.524 61.0279 945.709 60.857C946.222 60.4439 946.898 59.6107 947.739 58.3572L948.465 58.87C946.485 62.4452 944.306 64.2328 941.927 64.2328C941.044 64.2328 940.346 64.0121 939.833 63.5705C939.335 63.1147 939.086 62.5236 939.086 61.7971C939.086 61.0279 939.264 60.0522 939.62 58.87L940.667 55.2591C938.815 57.9512 937.469 59.7674 936.629 60.7075C935.347 62.1176 934.264 63.0577 933.381 63.5278C932.512 63.9978 931.679 64.2328 930.881 64.2328C930.126 64.2328 929.471 63.9551 928.915 63.3996C928.374 62.844 928.104 62.139 928.104 61.2843C928.104 60.5579 928.282 59.5822 928.638 58.3572L931.052 49.8108C931.451 48.4149 931.65 47.4748 931.65 46.9905C931.65 46.7769 931.593 46.5917 931.479 46.435C931.365 46.2641 931.173 46.1359 930.902 46.0504C930.646 45.9507 930.162 45.9009 929.45 45.9009L929.663 45.089L936.949 43.8284H938.231Z" fill="#D57093"/>
<path d="M928.597 34L921.653 57.9085C921.212 59.4041 920.991 60.3086 920.991 60.6219C920.991 60.7786 921.048 60.9139 921.162 61.0279C921.276 61.1419 921.397 61.1988 921.525 61.1988C921.767 61.1988 922.045 61.0778 922.358 60.8356C922.885 60.4368 923.526 59.6818 924.281 58.5708L925.05 58.9768C923.042 62.4808 920.834 64.2328 918.427 64.2328C917.572 64.2328 916.91 64.012 916.44 63.5704C915.984 63.1146 915.756 62.5378 915.756 61.8398C915.756 61.1703 915.941 60.216 916.312 58.9768L916.953 56.7974C915.172 59.9454 913.627 62.0392 912.316 63.079C911.319 63.8482 910.351 64.2328 909.411 64.2328C908.342 64.2328 907.438 63.7983 906.697 62.9295C905.971 62.0606 905.607 60.7929 905.607 59.1263C905.607 57.004 906.077 54.9101 907.018 52.8447C907.958 50.7794 909.04 49.0559 910.265 47.6742C911.504 46.2925 912.68 45.3097 913.791 44.7257C914.916 44.1275 916.02 43.8283 917.102 43.8283C917.658 43.8283 918.149 43.9423 918.577 44.1702C919.018 44.3981 919.517 44.8254 920.072 45.4521L921.653 40.132C922.038 38.8216 922.23 37.8815 922.23 37.3117C922.23 36.9699 922.102 36.6779 921.846 36.4357C921.589 36.1936 921.247 36.0725 920.82 36.0725C920.621 36.0725 920.371 36.0939 920.072 36.1366L920.286 35.3033L927.315 34H928.597ZM919.196 47.546C919.196 46.6771 919.025 46.0433 918.683 45.6444C918.342 45.2456 917.943 45.0462 917.487 45.0462C917.031 45.0462 916.54 45.2812 916.013 45.7513C915.001 46.6629 913.94 48.5003 912.829 51.2637C911.732 54.0128 911.184 56.3274 911.184 58.2076C911.184 58.8913 911.305 59.397 911.547 59.7246C911.789 60.0522 912.06 60.216 912.359 60.216C912.858 60.216 913.356 59.9881 913.855 59.5323C915.065 58.4497 916.255 56.5909 917.423 53.9558C918.605 51.3064 919.196 49.1698 919.196 47.546Z" fill="#D57093"/>
<path d="M897.231 43.8284C898.356 43.8284 899.41 44.0919 900.393 44.6189C901.39 45.1317 902.138 45.851 902.636 46.7769C903.149 47.7027 903.406 48.7283 903.406 49.8536C903.406 52.1611 902.758 54.4686 901.461 56.7761C900.179 59.0836 898.484 60.9069 896.376 62.2458C894.268 63.5705 892.146 64.2328 890.009 64.2328C888.072 64.2328 886.569 63.656 885.501 62.5022C884.447 61.3484 883.92 59.9383 883.92 58.2717C883.92 56.2918 884.312 54.4401 885.095 52.7166C885.893 50.9788 886.897 49.469 888.108 48.187C889.333 46.8908 890.736 45.8439 892.317 45.0462C893.898 44.2343 895.536 43.8284 897.231 43.8284ZM896.355 44.9608C895.6 44.9608 894.973 45.1815 894.475 45.6231C893.478 46.5205 892.352 48.6215 891.099 51.9261C889.845 55.2164 889.219 58.1863 889.219 60.8356C889.219 61.4909 889.418 62.0321 889.817 62.4595C890.216 62.8868 890.686 63.1004 891.227 63.1004C891.783 63.1004 892.274 62.9295 892.701 62.5877C893.328 62.0749 894.097 60.9282 895.009 59.1477C895.92 57.353 896.668 55.3802 897.252 53.2294C897.836 51.0643 898.128 49.0844 898.128 47.2896C898.128 46.549 897.95 45.9792 897.594 45.5804C897.238 45.1673 896.825 44.9608 896.355 44.9608Z" fill="#D57093"/>
<path d="M876.163 43.8284L872.937 55.836C875.587 49.9818 877.581 46.378 878.92 45.0249C879.703 44.2272 880.529 43.8284 881.398 43.8284C881.996 43.8284 882.481 44.0492 882.851 44.4907C883.221 44.918 883.407 45.5305 883.407 46.3282C883.407 47.7098 883.072 48.8707 882.402 49.8108C881.975 50.4091 881.498 50.7082 880.971 50.7082C880.401 50.7082 879.974 50.4447 879.689 49.9177C879.404 49.3906 879.205 49.0844 879.091 48.9989C878.977 48.8992 878.856 48.8494 878.727 48.8494C878.585 48.8494 878.435 48.8921 878.279 48.9776C877.965 49.1485 877.552 49.5687 877.04 50.2381C876.541 50.8934 875.921 51.9973 875.181 53.5499C874.44 55.1025 873.863 56.42 873.45 57.5026C873.037 58.5709 872.46 60.6149 871.719 63.6346H866.549L870.074 49.469C870.331 48.4149 870.459 47.717 870.459 47.3751C870.459 46.9905 870.388 46.6914 870.245 46.4777C870.117 46.2641 869.932 46.1074 869.69 46.0077C869.462 45.908 868.977 45.8581 868.237 45.8581L868.429 45.2385L874.882 43.8284H876.163Z" fill="#D57093"/>
<path d="M846.571 45.0249L853.643 43.8284H854.925L853.964 47.311C855.459 45.9436 856.684 45.0249 857.638 44.5548C858.593 44.0705 859.54 43.8284 860.48 43.8284C861.819 43.8284 862.852 44.3483 863.578 45.3881C864.305 46.4136 864.668 47.6742 864.668 49.1699C864.668 53.2579 863.251 56.883 860.416 60.0451C857.909 62.8369 855.174 64.2328 852.212 64.2328C851.685 64.2328 851.236 64.183 850.865 64.0833C850.495 63.9836 849.975 63.7628 849.306 63.4209L848.195 67.2668C847.796 68.6627 847.597 69.7239 847.597 70.4503C847.597 70.9061 847.753 71.2622 848.067 71.5186C848.38 71.7893 849.113 72.0172 850.267 72.2023L850.075 72.9929H838.58L838.794 72.2023C839.705 72.1738 840.467 71.8818 841.08 71.3263C841.678 70.7708 842.241 69.5743 842.768 67.7368L847.981 49.7681C848.366 48.4292 848.558 47.4819 848.558 46.9264C848.558 46.6843 848.501 46.4849 848.387 46.3282C848.273 46.1573 848.102 46.0362 847.874 45.965C847.646 45.8937 847.134 45.8581 846.336 45.8581L846.571 45.0249ZM849.904 61.4339C850.331 62.1318 850.716 62.6019 851.058 62.844C851.4 63.072 851.798 63.1859 852.254 63.1859C852.71 63.1859 853.152 63.0648 853.579 62.8227C854.021 62.5663 854.562 62.0606 855.203 61.3057C855.844 60.5508 856.456 59.5822 857.04 58.3999C857.638 57.2177 858.116 55.8788 858.472 54.3831C858.828 52.8733 859.006 51.4346 859.006 50.0672C859.006 48.9704 858.806 48.1728 858.408 47.6742C858.023 47.1757 857.553 46.9264 856.998 46.9264C856.499 46.9264 856.029 47.0546 855.587 47.311C854.946 47.6814 854.191 48.3722 853.323 49.3835L849.904 61.4339Z" fill="#D57093"/>
<path d="M832.214 43.8284L831.274 50.4304H830.484C830.37 48.7212 829.843 47.3751 828.903 46.3923C827.977 45.4094 826.98 44.918 825.911 44.918C825.256 44.918 824.715 45.1103 824.288 45.4949C823.86 45.8795 823.647 46.3424 823.647 46.8837C823.647 47.3395 823.739 47.7668 823.924 48.1657C824.11 48.5645 824.523 49.1058 825.164 49.7895C827.414 52.2109 828.782 53.8775 829.266 54.7891C829.75 55.7007 829.992 56.6764 829.992 57.7162C829.992 58.8415 829.707 59.9098 829.138 60.9211C828.568 61.9182 827.713 62.723 826.574 63.3355C825.448 63.9337 824.273 64.2328 823.048 64.2328C822.222 64.2328 821.204 64.069 819.993 63.7414C819.195 63.5135 818.597 63.3996 818.198 63.3996C817.842 63.3996 817.564 63.4565 817.365 63.5705C817.166 63.6702 816.945 63.891 816.703 64.2328H815.912L816.959 57.118H817.643C818.141 58.8415 818.604 60.0736 819.032 60.8143C819.473 61.5407 820.057 62.1247 820.784 62.5663C821.51 62.9936 822.208 63.2073 822.877 63.2073C823.661 63.2073 824.309 62.9651 824.822 62.4808C825.334 61.9823 825.591 61.3912 825.591 60.7075C825.591 60.038 825.42 59.3899 825.078 58.7632C824.75 58.1364 823.981 57.1607 822.771 55.836C821.104 54.027 820.007 52.6311 819.48 51.6483C819.11 50.9361 818.925 50.1242 818.925 49.2126C818.925 47.6742 819.48 46.3923 820.591 45.3667C821.717 44.3412 823.29 43.8284 825.313 43.8284C826.196 43.8284 827.279 43.9851 828.561 44.2984C829.202 44.4551 829.714 44.5334 830.099 44.5334C830.655 44.5334 831.103 44.2984 831.445 43.8284H832.214Z" fill="#D57093"/>
<path d="M808.434 43.8284C809.559 43.8284 810.613 44.0919 811.596 44.6189C812.593 45.1317 813.341 45.851 813.84 46.7769C814.352 47.7027 814.609 48.7283 814.609 49.8536C814.609 52.1611 813.961 54.4686 812.664 56.7761C811.383 59.0836 809.687 60.9069 807.579 62.2458C805.471 63.5705 803.349 64.2328 801.212 64.2328C799.275 64.2328 797.772 63.656 796.704 62.5022C795.65 61.3484 795.123 59.9383 795.123 58.2717C795.123 56.2918 795.515 54.4401 796.298 52.7166C797.096 50.9788 798.1 49.469 799.311 48.187C800.536 46.8908 801.939 45.8439 803.52 45.0462C805.101 44.2343 806.739 43.8284 808.434 43.8284ZM807.558 44.9608C806.803 44.9608 806.176 45.1815 805.678 45.6231C804.681 46.5205 803.555 48.6215 802.302 51.9261C801.049 55.2164 800.422 58.1863 800.422 60.8356C800.422 61.4909 800.621 62.0321 801.02 62.4595C801.419 62.8868 801.889 63.1004 802.43 63.1004C802.986 63.1004 803.477 62.9295 803.904 62.5877C804.531 62.0749 805.3 60.9282 806.212 59.1477C807.124 57.353 807.871 55.3802 808.455 53.2294C809.039 51.0643 809.331 49.0844 809.331 47.2896C809.331 46.549 809.153 45.9792 808.797 45.5804C808.441 45.1673 808.028 44.9608 807.558 44.9608Z" fill="#D57093"/>
<path d="M795.722 34L788.65 58.058C788.237 59.4824 788.03 60.3727 788.03 60.7288C788.03 60.9139 788.087 61.0706 788.201 61.1988C788.329 61.327 788.464 61.3911 788.607 61.3911C788.863 61.3911 789.105 61.2914 789.333 61.092C790.017 60.5365 790.779 59.5964 791.619 58.2717L792.453 58.6563C791.1 60.8214 789.768 62.3668 788.457 63.2927C787.56 63.9194 786.606 64.2328 785.594 64.2328C784.654 64.2328 783.906 63.9835 783.351 63.485C782.795 62.9722 782.518 62.3597 782.518 61.6475C782.518 61.1205 782.689 60.273 783.03 59.105L788.799 39.4056C789.113 38.323 789.269 37.6037 789.269 37.2476C789.269 36.9058 789.12 36.6351 788.821 36.4357C788.422 36.1508 787.816 36.0298 787.004 36.0725L787.239 35.2606L794.44 34H795.722Z" fill="#D57093"/>
<path d="M770.167 43.8284L769.227 50.4304H768.437C768.323 48.7212 767.796 47.3751 766.856 46.3923C765.93 45.4094 764.933 44.918 763.864 44.918C763.209 44.918 762.668 45.1103 762.241 45.4949C761.813 45.8795 761.6 46.3424 761.6 46.8837C761.6 47.3395 761.692 47.7668 761.877 48.1657C762.063 48.5645 762.476 49.1058 763.117 49.7895C765.367 52.2109 766.735 53.8775 767.219 54.7891C767.703 55.7007 767.945 56.6764 767.945 57.7162C767.945 58.8415 767.661 59.9098 767.091 60.9211C766.521 61.9182 765.666 62.723 764.527 63.3355C763.402 63.9337 762.226 64.2328 761.001 64.2328C760.175 64.2328 759.157 64.069 757.946 63.7414C757.148 63.5135 756.55 63.3996 756.151 63.3996C755.795 63.3996 755.518 63.4565 755.318 63.5705C755.119 63.6702 754.898 63.891 754.656 64.2328H753.865L754.912 57.118H755.596C756.094 58.8415 756.557 60.0736 756.985 60.8143C757.426 61.5407 758.01 62.1247 758.737 62.5663C759.463 62.9936 760.161 63.2073 760.831 63.2073C761.614 63.2073 762.262 62.9651 762.775 62.4808C763.288 61.9823 763.544 61.3912 763.544 60.7075C763.544 60.038 763.373 59.3899 763.031 58.7632C762.704 58.1364 761.934 57.1607 760.724 55.836C759.057 54.027 757.96 52.6311 757.433 51.6483C757.063 50.9361 756.878 50.1242 756.878 49.2126C756.878 47.6742 757.433 46.3923 758.544 45.3667C759.67 44.3412 761.244 43.8284 763.266 43.8284C764.149 43.8284 765.232 43.9851 766.514 44.2984C767.155 44.4551 767.668 44.5334 768.052 44.5334C768.608 44.5334 769.056 44.2984 769.398 43.8284H770.167Z" fill="#D57093"/>
<path d="M746.387 43.8284C747.512 43.8284 748.566 44.0919 749.549 44.6189C750.546 45.1317 751.294 45.851 751.793 46.7769C752.306 47.7027 752.562 48.7283 752.562 49.8536C752.562 52.1611 751.914 54.4686 750.618 56.7761C749.336 59.0836 747.641 60.9069 745.533 62.2458C743.424 63.5705 741.302 64.2328 739.165 64.2328C737.228 64.2328 735.726 63.656 734.657 62.5022C733.603 61.3484 733.076 59.9383 733.076 58.2717C733.076 56.2918 733.468 54.4401 734.251 52.7166C735.049 50.9788 736.053 49.469 737.264 48.187C738.489 46.8908 739.892 45.8439 741.473 45.0462C743.054 44.2343 744.692 43.8284 746.387 43.8284ZM745.511 44.9608C744.756 44.9608 744.129 45.1815 743.631 45.6231C742.634 46.5205 741.509 48.6215 740.255 51.9261C739.002 55.2164 738.375 58.1863 738.375 60.8356C738.375 61.4909 738.574 62.0321 738.973 62.4595C739.372 62.8868 739.842 63.1004 740.383 63.1004C740.939 63.1004 741.43 62.9295 741.858 62.5877C742.484 62.0749 743.253 60.9282 744.165 59.1477C745.077 57.353 745.825 55.3802 746.409 53.2294C746.993 51.0643 747.285 49.0844 747.285 47.2896C747.285 46.549 747.106 45.9792 746.75 45.5804C746.394 45.1673 745.981 44.9608 745.511 44.9608Z" fill="#D57093"/>
<path d="M733.996 34L727.052 57.9085C726.61 59.4041 726.389 60.3086 726.389 60.6219C726.389 60.7786 726.446 60.9139 726.56 61.0279C726.674 61.1419 726.795 61.1988 726.923 61.1988C727.166 61.1988 727.443 61.0778 727.757 60.8356C728.284 60.4368 728.925 59.6818 729.68 58.5708L730.449 58.9768C728.44 62.4808 726.233 64.2328 723.825 64.2328C722.971 64.2328 722.308 64.012 721.838 63.5704C721.383 63.1146 721.155 62.5378 721.155 61.8398C721.155 61.1703 721.34 60.216 721.71 58.9768L722.351 56.7974C720.571 59.9454 719.025 62.0392 717.715 63.079C716.718 63.8482 715.749 64.2328 714.809 64.2328C713.741 64.2328 712.836 63.7983 712.096 62.9295C711.369 62.0606 711.006 60.7929 711.006 59.1263C711.006 57.004 711.476 54.9101 712.416 52.8447C713.356 50.7794 714.439 49.0559 715.664 47.6742C716.903 46.2925 718.078 45.3097 719.189 44.7257C720.314 44.1275 721.418 43.8283 722.501 43.8283C723.056 43.8283 723.548 43.9423 723.975 44.1702C724.417 44.3981 724.915 44.8254 725.471 45.4521L727.052 40.132C727.436 38.8216 727.629 37.8815 727.629 37.3117C727.629 36.9699 727.5 36.6779 727.244 36.4357C726.988 36.1936 726.646 36.0725 726.218 36.0725C726.019 36.0725 725.77 36.0939 725.471 36.1366L725.684 35.3033L732.714 34H733.996ZM724.595 47.546C724.595 46.6771 724.424 46.0433 724.082 45.6444C723.74 45.2456 723.341 45.0462 722.885 45.0462C722.43 45.0462 721.938 45.2812 721.411 45.7513C720.4 46.6629 719.339 48.5003 718.228 51.2637C717.131 54.0128 716.582 56.3274 716.582 58.2076C716.582 58.8913 716.703 59.397 716.946 59.7246C717.188 60.0522 717.458 60.216 717.757 60.216C718.256 60.216 718.755 59.9881 719.253 59.5323C720.464 58.4497 721.653 56.5909 722.821 53.9558C724.003 51.3064 724.595 49.1698 724.595 47.546Z" fill="#D57093"/>
<path d="M702.629 43.8284C703.755 43.8284 704.809 44.0919 705.791 44.6189C706.789 45.1317 707.536 45.851 708.035 46.7769C708.548 47.7027 708.804 48.7283 708.804 49.8536C708.804 52.1611 708.156 54.4686 706.86 56.7761C705.578 59.0836 703.883 60.9069 701.775 62.2458C699.667 63.5705 697.544 64.2328 695.408 64.2328C693.47 64.2328 691.968 63.656 690.899 62.5022C689.845 61.3484 689.318 59.9383 689.318 58.2717C689.318 56.2918 689.71 54.4401 690.493 52.7166C691.291 50.9788 692.295 49.469 693.506 48.187C694.731 46.8908 696.134 45.8439 697.715 45.0462C699.296 44.2343 700.934 43.8284 702.629 43.8284ZM701.753 44.9608C700.998 44.9608 700.372 45.1815 699.873 45.6231C698.876 46.5205 697.751 48.6215 696.497 51.9261C695.244 55.2164 694.617 58.1863 694.617 60.8356C694.617 61.4909 694.817 62.0321 695.215 62.4595C695.614 62.8868 696.084 63.1004 696.626 63.1004C697.181 63.1004 697.672 62.9295 698.1 62.5877C698.726 62.0749 699.496 60.9282 700.407 59.1477C701.319 57.353 702.067 55.3802 702.651 53.2294C703.235 51.0643 703.527 49.0844 703.527 47.2896C703.527 46.549 703.349 45.9792 702.993 45.5804C702.636 45.1673 702.223 44.9608 701.753 44.9608Z" fill="#D57093"/>
<path d="M672.525 34.6624H695.836L693.635 42.4609H692.866C692.894 42.0478 692.908 41.6846 692.908 41.3713C692.908 39.8899 692.474 38.7432 691.605 37.9313C690.736 37.1052 689.269 36.6351 687.204 36.5212L680.751 58.3358C680.395 59.5465 680.217 60.4439 680.217 61.0279C680.217 61.5692 680.438 62.0036 680.879 62.3312C681.321 62.6446 682.218 62.8155 683.572 62.844L683.379 63.6346H669L669.256 62.844C670.724 62.844 671.792 62.5734 672.461 62.0321C673.131 61.4766 673.743 60.2445 674.299 58.3358L680.751 36.5212C678.529 36.5924 676.67 37.0767 675.175 37.9741C673.679 38.8714 672.312 40.3671 671.072 42.4609H670.239L672.525 34.6624Z" fill="#D57093"/>
</svg>
