<svg width="37" height="37" viewBox="0 0 37 37" fill="none" xmlns="http://www.w3.org/2000/svg">
<path d="M0.15036 20.521C0.114162 20.134 0.0779643 19.747 0.0417666 19.3628C0.0417666 19.3461 0.0417666 19.3294 0.0389822 19.3155C0.0389822 19.2876 0.0389822 19.2598 0.0389822 19.2292C0.0278444 19.0928 0.0194911 18.9563 0.00835332 18.8199C0.00835332 18.3522 0.00278444 17.8845 0 17.4196C0.0389822 17.3444 0.0306288 17.2692 0.00835332 17.1913C0.0501199 16.7096 0.094671 16.2252 0.136438 15.7436C0.20048 15.5821 0.189342 15.4095 0.222755 15.2425C0.270091 14.9585 0.317426 14.6717 0.361977 14.3878C0.453864 14.2319 0.439942 14.0509 0.492846 13.8867C0.562457 13.6166 0.632068 13.3493 0.698895 13.0793C0.723955 13.0709 0.726739 13.0515 0.718386 13.0292C0.787997 12.8037 0.857608 12.581 0.924434 12.3554C0.994045 12.1828 1.06923 12.013 1.09429 11.8237C1.30312 11.3365 1.50917 10.8493 1.718 10.3621C1.84052 10.1589 1.94911 9.94728 2.03543 9.72734C2.04935 9.69672 2.06606 9.66609 2.07998 9.63825C2.19971 9.46564 2.30273 9.2819 2.38627 9.0898C2.6842 8.62487 2.97935 8.15994 3.27729 7.69501C3.33019 7.6449 3.38031 7.59479 3.39702 7.51962C3.5251 7.35258 3.65319 7.18554 3.78405 7.01571C3.88151 6.88765 3.97897 6.76237 4.07642 6.6343C4.15717 6.54243 4.23792 6.45056 4.31867 6.35868V6.34476H4.30196C4.35208 6.36425 4.35208 6.31414 4.37157 6.29187C4.68064 5.97449 4.94795 5.61814 5.28487 5.3286C5.38232 5.24508 5.41574 5.08639 5.50762 5.03906C5.74987 4.911 5.91415 4.7022 6.11185 4.52959C6.18703 4.46834 6.26221 4.40431 6.3346 4.34306C6.48775 4.21778 6.63811 4.0925 6.79125 3.96443C6.93604 3.85029 7.07805 3.73615 7.22284 3.62478C7.31194 3.5691 7.40104 3.51899 7.46787 3.43826C7.69619 3.27678 7.92452 3.11531 8.15563 2.95384C8.3923 2.80907 8.62898 2.66708 8.86566 2.52232C8.98539 2.44993 9.10791 2.37755 9.22764 2.30795C9.33345 2.27175 9.42812 2.21886 9.51165 2.14647C9.73162 2.06017 9.93767 1.95159 10.1381 1.83188C10.2857 1.76228 10.4361 1.69546 10.5837 1.62586C10.6783 1.58967 10.7814 1.56462 10.8593 1.49223C11.0849 1.40036 11.3104 1.30849 11.5359 1.21661C12.0093 1.05792 12.4826 0.896452 12.9532 0.737763C13.1453 0.684867 13.3347 0.634755 13.5268 0.581859C13.7524 0.523394 13.9807 0.46493 14.2062 0.406466C14.674 0.33965 15.1334 0.211585 15.6068 0.175393C15.7544 0.122497 15.9186 0.175393 16.0607 0.0974404C16.3614 0.0779523 16.6621 0.0584643 16.9628 0.0417602C17.0853 0.0278401 17.2051 0.0139201 17.3276 0C17.8232 0 18.3216 0 18.8173 0C18.8618 0 18.9091 0.00556803 18.9537 0.00835204C19.1931 0.0668163 19.4382 0.0417602 19.6776 0.0528962C19.8837 0.116929 20.1009 0.0946564 20.3125 0.130849C20.5826 0.169825 20.8527 0.208801 21.12 0.247777C21.1283 0.275617 21.1478 0.275617 21.1729 0.267265C21.3873 0.275617 21.5878 0.373058 21.8022 0.361922C21.9553 0.453794 22.1391 0.439874 22.3034 0.49277C22.5735 0.562371 22.8436 0.631971 23.1136 0.701571C23.3253 0.768387 23.5369 0.835204 23.7513 0.899236C23.8125 0.91594 23.871 0.935428 23.9323 0.952132C24.0854 1.00781 24.2358 1.06349 24.3889 1.11917C24.6423 1.21661 24.8985 1.31127 25.1519 1.40871C25.5751 1.61473 26.0011 1.81796 26.4243 2.02398C26.9005 2.27175 27.3599 2.54459 27.8193 2.82577C27.8862 2.86475 27.953 2.90651 28.0198 2.94549C28.1785 3.05963 28.3373 3.17099 28.496 3.28513C28.9498 3.6053 29.3814 3.95051 29.8102 4.3013C29.8269 4.31522 29.8436 4.32914 29.8603 4.34306C30.0831 4.54072 30.3086 4.74117 30.5314 4.93884C30.5453 4.95276 30.562 4.96668 30.5759 4.9806C30.7876 5.19218 30.9992 5.40377 31.2108 5.61535C31.2247 5.62927 31.2386 5.64598 31.2526 5.6599C31.8289 6.31692 32.4081 6.97117 32.9065 7.69501C33.0207 7.85092 33.1321 8.00682 33.2462 8.16272C33.2685 8.24625 33.3158 8.31585 33.3827 8.37153L34.1957 9.78859C34.3934 10.2062 34.5883 10.6238 34.786 11.0386L35.0756 11.8014C35.1313 11.9545 35.187 12.1049 35.2427 12.258C35.2594 12.3193 35.2789 12.3777 35.2956 12.439C35.3708 12.6673 35.4431 12.8928 35.5183 13.1211C35.5796 13.3772 35.6408 13.6305 35.7049 13.8867C35.7578 14.0509 35.7439 14.2319 35.8358 14.3878C35.8274 14.6049 35.9221 14.8054 35.9304 15.017C35.9193 15.0559 35.9416 15.081 35.9638 15.1088C35.9973 15.365 36.0307 15.6211 36.0669 15.8772C36.1058 16.0888 36.0836 16.306 36.1448 16.512C36.1643 16.7375 36.1142 16.9686 36.1894 17.1913C36.1894 17.2052 36.1894 17.2191 36.1894 17.233C36.1894 17.8065 36.1894 18.3801 36.1894 18.9536C36.1782 19.0454 36.1671 19.1345 36.156 19.2264C36.1393 19.5104 36.1226 19.7971 36.1058 20.0811C36.078 20.2481 36.0474 20.4152 36.0195 20.5822C35.9805 21.0555 35.858 21.5148 35.7856 21.9826C35.7272 22.2081 35.6715 22.4364 35.613 22.6619C35.5601 22.854 35.51 23.0433 35.4571 23.2354C35.2984 23.7087 35.1369 24.1819 34.9781 24.6524C34.8863 24.8779 34.7944 25.1034 34.7025 25.3262C34.6329 25.4041 34.6078 25.5071 34.5688 25.6018C34.5076 25.7354 34.4463 25.8718 34.3851 26.0055C34.257 26.2226 34.14 26.4426 34.0481 26.6764C34.0092 26.7404 33.9702 26.8045 33.9312 26.8685C33.8449 27.0216 33.7586 27.172 33.6722 27.3251C33.5302 27.5617 33.3854 27.7984 33.2434 28.0322C33.0792 28.2605 32.9177 28.4916 32.7534 28.7199C32.6921 28.8006 32.6336 28.8841 32.5724 28.9649C32.4582 29.1096 32.3441 29.2516 32.2327 29.3964C32.1074 29.5495 31.9821 29.6998 31.854 29.853C31.7927 29.9281 31.7287 30.0033 31.6674 30.0757C31.105 30.6826 30.5258 31.2672 29.9049 31.8129C29.8826 31.8324 29.8353 31.8324 29.852 31.8825V31.8658H29.8353C29.7545 31.9326 29.671 32.0022 29.5903 32.069C29.4538 32.1804 29.3146 32.2918 29.1782 32.4003C29.0111 32.5284 28.844 32.6565 28.6742 32.7873C28.6018 32.8012 28.5517 32.8541 28.4988 32.8987C28.0338 33.1993 27.5687 33.4972 27.1037 33.7979C26.9116 33.8842 26.7278 33.9844 26.558 34.1042C26.4995 34.1153 26.4438 34.1376 26.4049 34.1849C26.171 34.2684 25.9538 34.3853 25.7366 34.5051C25.5194 34.6025 25.2883 34.6665 25.0962 34.8113V34.7974H25.0795C24.84 34.8892 24.5922 34.9644 24.3666 35.0925C24.1801 35.1147 24.0074 35.1899 23.8376 35.2595L23.1665 35.4655C23.1248 35.4544 23.0969 35.4795 23.0719 35.5073C22.8157 35.5685 22.5623 35.6298 22.3062 35.6938C22.1419 35.7467 21.9609 35.7356 21.805 35.8247C21.5209 35.872 21.2341 35.9193 20.9501 35.9639C20.7831 35.9917 20.6104 35.9778 20.4489 36.0502C19.9672 36.0919 19.4827 36.1365 19.001 36.1782C18.9426 36.1532 18.8813 36.156 18.8228 36.1782C18.3411 36.1782 17.8594 36.1838 17.3749 36.1866C17.2385 36.156 17.102 36.1393 16.9628 36.1504C16.935 36.1504 16.9043 36.1504 16.8765 36.1504C16.8598 36.1504 16.8431 36.1504 16.8292 36.1476C16.4421 36.1114 16.0551 36.0752 15.668 36.039C15.4425 35.9583 15.2003 35.9834 14.9719 35.9221C14.7018 35.872 14.429 35.8247 14.1589 35.7746C13.9723 35.7022 13.7774 35.6549 13.5797 35.6298C13.1259 35.4934 12.672 35.3542 12.2181 35.2178C11.9898 35.137 11.7643 35.0535 11.5359 34.9728C11.0849 34.7751 10.6338 34.5774 10.1827 34.3826C9.86527 34.1738 9.48937 34.0763 9.17752 33.8452C9.09398 33.784 9.00767 33.6921 8.88515 33.6921C8.42015 33.3831 7.95793 33.0741 7.49293 32.7678C7.25904 32.5869 7.02514 32.4059 6.79125 32.2249C6.73556 32.1888 6.70772 32.1108 6.62419 32.1108C6.47382 31.9354 6.28448 31.8073 6.10906 31.6598C6.02831 31.5846 5.94478 31.5095 5.86403 31.4343C5.71924 31.2979 5.57445 31.1615 5.42966 31.0278C5.35448 30.9248 5.26538 30.8329 5.15957 30.7578C5.02313 30.6158 4.88948 30.4766 4.75304 30.3346C4.689 30.2399 4.62217 30.1481 4.52472 30.0813C4.38828 29.917 4.24906 29.75 4.11262 29.5857C4.0625 29.5245 4.01238 29.4632 3.96226 29.3992C3.78127 29.1653 3.60028 28.9315 3.41929 28.6976C3.2578 28.4665 3.0963 28.2327 2.93759 28.0016C2.90696 27.932 2.87633 27.8624 2.8095 27.8179C2.73432 27.6425 2.62851 27.4838 2.51992 27.3251C2.28046 26.8852 2.04378 26.4453 1.80432 26.0082C1.60662 25.5572 1.40893 25.1062 1.21402 24.6552C1.13327 24.4269 1.04973 24.1986 0.968985 23.9731C0.832548 23.5193 0.693326 23.0655 0.556888 22.6117C0.531828 22.3974 0.470571 22.1886 0.403744 21.9826C0.356408 21.7292 0.309073 21.4731 0.264522 21.2197C0.222755 20.9887 0.219971 20.7492 0.147575 20.5237L0.15036 20.521ZM1.94911 15.0643C1.85444 15.2981 1.85722 15.5487 1.82102 15.7909C1.7904 16.0303 1.75977 16.2698 1.73192 16.5092C1.718 16.7208 1.70129 16.9351 1.68737 17.1467L1.67902 17.5059C1.64282 17.8984 1.64282 18.2882 1.67902 18.6807C1.69572 18.8645 1.6456 19.051 1.70965 19.232C1.70965 19.4575 1.70965 19.683 1.76534 19.9029C1.76255 20.1785 1.82659 20.4458 1.86836 20.7158C1.93519 21.1279 1.97974 21.5455 2.12731 21.938C2.15516 22.1747 2.20806 22.403 2.29995 22.6229C2.35007 22.8373 2.38905 23.0544 2.49764 23.2493C2.54498 23.4581 2.60624 23.6641 2.71761 23.8534C2.71761 23.898 2.70926 23.9425 2.74824 23.9759C2.82621 24.2237 2.93202 24.4603 3.04339 24.6914C3.22717 25.148 3.44435 25.5879 3.69774 26.011C3.80911 26.231 3.91492 26.4509 4.07364 26.643C4.33537 27.1469 4.67508 27.5979 5.02035 28.0461C5.12894 28.2048 5.23196 28.3719 5.38232 28.4972C5.4408 28.5751 5.47699 28.6698 5.5661 28.7227C5.71089 28.9203 5.86682 29.1096 6.05894 29.2655C6.1202 29.3324 6.17867 29.3992 6.23993 29.466C6.38751 29.6414 6.54622 29.8029 6.72164 29.9476C6.78847 30.0089 6.85529 30.0701 6.92212 30.1286C7.07805 30.3179 7.26739 30.4738 7.46509 30.6186C7.52077 30.7049 7.61266 30.7439 7.69063 30.8023C7.81593 30.9527 7.98021 31.0557 8.1417 31.167C8.55937 31.4955 8.99374 31.8018 9.45318 32.069C9.4671 32.1136 9.5033 32.1136 9.53949 32.1136C9.7344 32.2667 9.95438 32.3808 10.1771 32.4894C10.5976 32.7428 11.0403 32.9599 11.4942 33.1437C11.7281 33.2578 11.9647 33.3608 12.2126 33.4388C12.246 33.4805 12.2905 33.4722 12.3351 33.4694C12.5216 33.5808 12.7277 33.6392 12.9393 33.6893C13.1342 33.7979 13.3514 33.8369 13.5686 33.887C13.7913 33.965 14.0169 34.0429 14.2536 34.0596C14.5598 34.1821 14.8856 34.2155 15.2058 34.274C15.2504 34.2768 15.2949 34.2823 15.3395 34.2851C15.3785 34.3213 15.4258 34.3324 15.4759 34.3185C15.7599 34.3575 16.0439 34.4327 16.3335 34.4215C16.5368 34.4828 16.7484 34.4744 16.9572 34.4772C17.1382 34.544 17.3248 34.4911 17.5086 34.5078C17.8845 34.544 18.2631 34.544 18.639 34.5078C18.7727 34.5078 18.9091 34.5023 19.0428 34.4995C19.2572 34.5273 19.466 34.4494 19.6804 34.4549C19.9199 34.4243 20.1594 34.3937 20.3988 34.3659C20.6411 34.3297 20.8917 34.3324 21.1256 34.2378C21.2453 34.2211 21.365 34.2016 21.4847 34.1849C21.5822 34.1598 21.6769 34.1376 21.7743 34.1125L22.3925 33.9566C22.6236 33.9009 22.8547 33.848 23.0747 33.7562C23.5369 33.6253 23.9796 33.4443 24.4251 33.2717C24.6339 33.1632 24.8706 33.1103 25.0628 32.9655C25.1992 32.9349 25.3189 32.8681 25.4331 32.7901C25.5667 32.7567 25.6837 32.6954 25.7867 32.6036C26.2823 32.3781 26.739 32.0885 27.1817 31.7795C27.3321 31.6765 27.4852 31.5763 27.6356 31.4733C27.6968 31.4287 27.7581 31.3814 27.8193 31.3368C28.3818 30.961 28.8886 30.5156 29.3786 30.0506C30.0302 29.4298 30.6511 28.7811 31.1746 28.0434C31.2052 27.9988 31.2386 27.9515 31.2693 27.9069C31.4308 27.7483 31.5505 27.5562 31.6702 27.3641C31.9709 26.927 32.2605 26.4843 32.5 26.0082L32.6086 25.8217C32.6866 25.6575 32.7979 25.5071 32.8453 25.3289C32.9817 25.1341 33.0652 24.9113 33.1516 24.6914C33.3576 24.2181 33.5664 23.7476 33.6973 23.2493C33.7975 23.0488 33.8532 22.8345 33.8866 22.6145C34.0342 22.1914 34.1512 21.7626 34.2096 21.3172C34.2681 21.1195 34.3071 20.9163 34.3266 20.7103C34.3656 20.4402 34.4324 20.173 34.4296 19.9001C34.4825 19.6802 34.4825 19.4547 34.4853 19.2292C34.5466 18.987 34.5131 18.742 34.5215 18.497C34.5493 18.2854 34.5493 18.0766 34.5215 17.865C34.5187 17.6256 34.5131 17.3834 34.5104 17.1439C34.4964 16.9324 34.4797 16.718 34.4658 16.5064C34.4352 16.267 34.4045 16.0276 34.3767 15.7881C34.3433 15.5543 34.3405 15.3176 34.2598 15.0921C34.2069 14.6356 34.0565 14.2012 33.9702 13.753C33.9034 13.5387 33.8365 13.3271 33.7697 13.1127C33.7001 12.8677 33.6305 12.6255 33.5191 12.3944C33.469 12.2023 33.4077 12.0158 33.2963 11.8488C33.2963 11.8126 33.2991 11.7764 33.2685 11.7513C33.1961 11.5314 33.1098 11.317 32.9817 11.1249C32.7924 10.6321 32.5195 10.1811 32.255 9.72734C32.1631 9.55473 32.0684 9.38491 31.9431 9.23179C31.9041 9.13435 31.8456 9.04804 31.7677 8.97566C31.4976 8.51351 31.1774 8.08477 30.8182 7.68944C30.7402 7.56973 30.6623 7.45002 30.5453 7.3665C30.4646 7.2273 30.3588 7.10758 30.2307 7.01293C30.1276 6.86816 30.0023 6.74288 29.8687 6.62595C29.7852 6.51459 29.6877 6.41715 29.5763 6.33363C29.4594 6.2 29.3341 6.07472 29.1893 5.97171C29.0918 5.84364 28.9749 5.73785 28.8357 5.65711C28.7494 5.54018 28.6296 5.46223 28.5127 5.38428C28.1089 5.03349 27.6829 4.71333 27.2263 4.43493C27.1539 4.35976 27.0675 4.3013 26.9701 4.25954C26.8169 4.13426 26.6471 4.0396 26.4745 3.94773C26.054 3.6916 25.6224 3.45218 25.1686 3.25729C24.9402 3.12088 24.6952 3.02065 24.4474 2.93157C24.4223 2.89816 24.3861 2.90094 24.3499 2.90373C24.1829 2.79236 23.9963 2.7339 23.8042 2.681C23.5759 2.56964 23.3308 2.49726 23.0886 2.43044C22.8742 2.36363 22.6626 2.29681 22.4482 2.22999C22.4175 2.22999 22.3869 2.22721 22.3535 2.22443C22.153 2.12977 21.933 2.11028 21.7214 2.0546C21.5154 2.01563 21.3121 1.97665 21.1061 1.93767C20.8805 1.85694 20.6411 1.86529 20.41 1.82074C20.1705 1.79012 19.931 1.7595 19.6916 1.73166C19.4799 1.71774 19.2655 1.70103 19.0539 1.68711C18.7978 1.68433 18.5444 1.64814 18.2882 1.67598C18.0766 1.64535 17.8678 1.64814 17.6561 1.67598C17.4278 1.6899 17.1967 1.64814 16.9712 1.71217C16.7456 1.71217 16.5201 1.71217 16.3001 1.76785C16.0245 1.76506 15.7572 1.8291 15.4871 1.87086C15.281 1.89034 15.0805 1.92932 14.8828 1.98778C14.4373 2.04625 14.0085 2.17153 13.5797 2.30238C13.3653 2.35249 13.1481 2.39147 12.9532 2.50004C12.452 2.62811 11.9814 2.84248 11.5109 3.04571C11.2909 3.13201 11.0682 3.21275 10.8732 3.35195C10.6923 3.39928 10.5447 3.51064 10.3804 3.58859C10.3191 3.62478 10.2551 3.66098 10.1938 3.69717C9.72048 3.93938 9.27497 4.22613 8.83782 4.5268C8.64569 4.64652 8.45356 4.76345 8.29485 4.9277C8.2503 4.95833 8.20296 4.98895 8.15841 5.02236C8.11943 5.04742 8.08045 5.0669 8.04703 5.09474C7.34257 5.66268 6.67152 6.26124 6.06173 6.93776C5.64128 7.40269 5.23196 7.8704 4.86442 8.37431C4.81987 8.43556 4.77253 8.49681 4.72798 8.55805C4.62496 8.70839 4.52472 8.86151 4.42169 9.01185C4.11262 9.45729 3.82582 9.91387 3.5975 10.4066C3.50561 10.5096 3.44435 10.6294 3.41094 10.7602C3.33576 10.8744 3.26615 10.9913 3.23552 11.1277C3.12414 11.2892 3.04896 11.4673 3.00163 11.6567C2.75938 12.1216 2.60345 12.6199 2.44474 13.1183C2.35285 13.3382 2.29995 13.5693 2.24426 13.8004C2.19135 14.0064 2.14123 14.2124 2.08833 14.4184C2.06327 14.5158 2.041 14.6105 2.01594 14.7079C1.99923 14.8277 1.97974 14.9474 1.96303 15.0671L1.94911 15.0643Z" fill="#D57093"/>
<path d="M24.8378 12.5857C24.7059 12.5186 24.5775 12.445 24.4531 12.3652C24.0913 12.1296 23.7595 11.852 23.465 11.5384C22.7281 10.7079 22.4529 9.86546 22.3515 9.27562H22.3555C22.2709 8.78602 22.3059 8.46924 22.3112 8.46924H18.9548V21.2518C18.9548 21.4234 18.9548 21.593 18.9474 21.7607C18.9474 21.7815 18.9454 21.8007 18.9442 21.8232C18.9442 21.8324 18.9442 21.8421 18.9421 21.8517C18.9421 21.8541 18.9421 21.8565 18.9421 21.8589C18.9068 22.3175 18.7575 22.7606 18.5075 23.1491C18.2574 23.5375 17.9143 23.8595 17.5082 24.0868C17.085 24.3239 16.6064 24.4483 16.1195 24.4476C14.5557 24.4476 13.2883 23.1918 13.2883 21.6408C13.2883 20.0898 14.5557 18.8339 16.1195 18.8339C16.4155 18.8336 16.7097 18.8795 16.9912 18.9698L16.9952 15.6039C16.1408 15.4952 15.2728 15.5621 14.4459 15.8004C13.6191 16.0386 12.8513 16.443 12.1911 16.9881C11.6126 17.4832 11.1262 18.0739 10.7539 18.7336C10.6122 18.9742 10.0776 19.941 10.0129 21.51C9.97219 22.4006 10.2438 23.3233 10.3732 23.7046V23.7126C10.4546 23.9372 10.7702 24.7035 11.2844 25.3495C11.699 25.8676 12.1889 26.3228 12.7383 26.7004V26.6924L12.7464 26.7004C14.3713 27.7878 16.1728 27.7165 16.1728 27.7165C16.4847 27.704 17.5294 27.7165 18.7158 27.1627C20.0316 26.5488 20.7808 25.6342 20.7808 25.6342C21.2593 25.0876 21.6399 24.4648 21.9061 23.7924C22.2098 23.0061 22.3112 22.063 22.3112 21.6861V14.9046C22.3519 14.9287 22.8942 15.282 22.8942 15.282C22.8942 15.282 23.6755 15.7752 24.8944 16.0964C25.769 16.3249 26.9472 16.373 26.9472 16.373V13.0914C26.5344 13.1355 25.6961 13.0072 24.8378 12.5857Z" fill="#D57093"/>
</svg>
