<svg width="37" height="37" viewBox="0 0 37 37" fill="none" xmlns="http://www.w3.org/2000/svg">
<g clip-path="url(#clip0_59_472)">
<path d="M0.153559 20.521C0.116591 20.134 0.0796232 19.747 0.0426553 19.3628C0.0426553 19.3461 0.0426553 19.3294 0.0398116 19.3155C0.0398116 19.2876 0.0398116 19.2598 0.0398116 19.2292C0.0284368 19.0928 0.0199058 18.9563 0.00853105 18.8199C0.00853105 18.3522 0.00284368 17.8845 0 17.4196C0.0398116 17.3444 0.0312805 17.2692 0.00853105 17.1913C0.0511863 16.7096 0.0966853 16.2252 0.139341 15.7436C0.204745 15.5821 0.193371 15.4095 0.227495 15.2425C0.275837 14.9585 0.32418 14.6717 0.369679 14.3878C0.463521 14.2319 0.449302 14.0509 0.503332 13.8867C0.574424 13.6166 0.645516 13.3493 0.713765 13.0793C0.739358 13.0709 0.742202 13.0515 0.733671 13.0292C0.804763 12.8037 0.875855 12.581 0.944103 12.3554C1.0152 12.1828 1.09197 12.013 1.11757 11.8237C1.33084 11.3365 1.54128 10.8493 1.75455 10.3621C1.87968 10.1589 1.99058 9.94728 2.07873 9.72734C2.09295 9.69672 2.11001 9.66609 2.12423 9.63825C2.24651 9.46564 2.35173 9.2819 2.43704 9.0898C2.74131 8.62487 3.04274 8.15994 3.34702 7.69501C3.40105 7.6449 3.45223 7.59479 3.46929 7.51962C3.6001 7.35258 3.73091 7.18554 3.86457 7.01571C3.9641 6.88765 4.06362 6.76237 4.16315 6.6343C4.24562 6.54243 4.32809 6.45056 4.41055 6.35868V6.34476H4.39349C4.44468 6.36425 4.44468 6.31414 4.46458 6.29187C4.78023 5.97449 5.05323 5.61814 5.39731 5.3286C5.49684 5.24508 5.53097 5.08639 5.62481 5.03906C5.87221 4.911 6.03999 4.7022 6.24189 4.52959C6.31867 4.46834 6.39545 4.40431 6.46938 4.34306C6.62578 4.21778 6.77934 4.0925 6.93575 3.96443C7.08362 3.85029 7.22865 3.73615 7.37652 3.62478C7.46751 3.5691 7.55851 3.51899 7.62676 3.43826C7.85994 3.27678 8.09313 3.11531 8.32915 2.95384C8.57086 2.80907 8.81258 2.66708 9.05429 2.52232C9.17657 2.44993 9.30169 2.37755 9.42397 2.30795C9.53203 2.27175 9.62871 2.21886 9.71403 2.14647C9.93868 2.06017 10.1491 1.95159 10.3539 1.83188C10.5046 1.76228 10.6581 1.69546 10.8088 1.62586C10.9055 1.58967 11.0107 1.56462 11.0904 1.49223C11.3207 1.40036 11.551 1.30849 11.7814 1.21661C12.2648 1.05792 12.7482 0.896452 13.2288 0.737763C13.425 0.684867 13.6184 0.634755 13.8146 0.581859C14.045 0.523394 14.2781 0.46493 14.5085 0.406466C14.9862 0.33965 15.4554 0.211585 15.9389 0.175393C16.0896 0.122497 16.2573 0.175393 16.4024 0.0974404C16.7095 0.0779523 17.0166 0.0584643 17.3237 0.0417602C17.4488 0.0278401 17.5711 0.0139201 17.6962 0C18.2024 0 18.7114 0 19.2176 0C19.2631 0 19.3115 0.00556803 19.357 0.00835204C19.6015 0.0668163 19.8518 0.0417602 20.0963 0.0528962C20.3067 0.116929 20.5286 0.0946564 20.7447 0.130849C21.0205 0.169825 21.2964 0.208801 21.5693 0.247777C21.5779 0.275617 21.5978 0.275617 21.6234 0.267265C21.8423 0.275617 22.0471 0.373058 22.266 0.361922C22.4225 0.453794 22.6101 0.439874 22.7779 0.49277C23.0537 0.562371 23.3296 0.631971 23.6054 0.701571C23.8215 0.768387 24.0377 0.835204 24.2566 0.899236C24.3192 0.91594 24.3789 0.935428 24.4415 0.952132C24.5979 1.00781 24.7514 1.06349 24.9078 1.11917C25.1666 1.21661 25.4282 1.31127 25.687 1.40871C26.1192 1.61473 26.5543 1.81796 26.9866 2.02398C27.4728 2.27175 27.942 2.54459 28.4113 2.82577C28.4795 2.86475 28.5477 2.90651 28.616 2.94549C28.7781 3.05963 28.9402 3.17099 29.1023 3.28513C29.5658 3.6053 30.0066 3.95051 30.4445 4.3013C30.4615 4.31522 30.4786 4.32914 30.4957 4.34306C30.7232 4.54072 30.9535 4.74117 31.181 4.93884C31.1952 4.95276 31.2123 4.96668 31.2265 4.9806C31.4426 5.19218 31.6587 5.40377 31.8749 5.61535C31.8891 5.62927 31.9033 5.64598 31.9175 5.6599C32.5062 6.31692 33.0976 6.97117 33.6067 7.69501C33.7233 7.85092 33.837 8.00682 33.9536 8.16272C33.9763 8.24625 34.0247 8.31585 34.0929 8.37153L34.9233 9.78859C35.1252 10.2062 35.3242 10.6238 35.5261 11.0386L35.8219 11.8014C35.8788 11.9545 35.9356 12.1049 35.9925 12.258C36.0096 12.3193 36.0295 12.3777 36.0465 12.439C36.1233 12.6673 36.1973 12.8928 36.274 13.1211C36.3366 13.3772 36.3992 13.6305 36.4646 13.8867C36.5186 14.0509 36.5044 14.2319 36.5982 14.3878C36.5897 14.6049 36.6864 14.8054 36.6949 15.017C36.6835 15.0559 36.7063 15.081 36.729 15.1088C36.7631 15.365 36.7973 15.6211 36.8342 15.8772C36.8741 16.0888 36.8513 16.306 36.9139 16.512C36.9338 16.7375 36.8826 16.9686 36.9594 17.1913C36.9594 17.2052 36.9594 17.2191 36.9594 17.233C36.9594 17.8065 36.9594 18.3801 36.9594 18.9536C36.948 19.0454 36.9366 19.1345 36.9252 19.2264C36.9082 19.5104 36.8911 19.7971 36.8741 20.0811C36.8456 20.2481 36.8143 20.4152 36.7859 20.5822C36.7461 21.0555 36.621 21.5148 36.547 21.9826C36.4873 22.2081 36.4304 22.4364 36.3707 22.6619C36.3167 22.854 36.2655 23.0433 36.2115 23.2354C36.0494 23.7087 35.8845 24.1819 35.7224 24.6524C35.6285 24.8779 35.5347 25.1034 35.4408 25.3262C35.3697 25.4041 35.3442 25.5071 35.3043 25.6018C35.2418 25.7354 35.1792 25.8718 35.1167 26.0055C34.9858 26.2226 34.8664 26.4426 34.7726 26.6764C34.7328 26.7404 34.6929 26.8045 34.6531 26.8685C34.565 27.0216 34.4768 27.172 34.3887 27.3251C34.2436 27.5617 34.0958 27.7984 33.9507 28.0322C33.783 28.2605 33.618 28.4916 33.4503 28.7199C33.3877 28.8006 33.328 28.8841 33.2654 28.9649C33.1488 29.1096 33.0322 29.2516 32.9185 29.3964C32.7905 29.5495 32.6626 29.6998 32.5317 29.853C32.4692 29.9281 32.4038 30.0033 32.3412 30.0757C31.7668 30.6826 31.1753 31.2672 30.5412 31.8129C30.5184 31.8324 30.4701 31.8324 30.4871 31.8825V31.8658H30.4701C30.3876 31.9326 30.3023 32.0022 30.2198 32.069C30.0805 32.1804 29.9383 32.2918 29.799 32.4003C29.6283 32.5284 29.4577 32.6565 29.2843 32.7873C29.2103 32.8012 29.1591 32.8541 29.1051 32.8987C28.6302 33.1993 28.1553 33.4972 27.6804 33.7979C27.4842 33.8842 27.2965 33.9844 27.1231 34.1042C27.0633 34.1153 27.0065 34.1376 26.9667 34.1849C26.7278 34.2684 26.506 34.3853 26.2842 34.5051C26.0624 34.6025 25.8263 34.6665 25.6301 34.8113V34.7974H25.6131C25.3685 34.8892 25.1154 34.9644 24.8851 35.0925C24.6946 35.1147 24.5182 35.1899 24.3448 35.2595L23.6595 35.4655C23.6168 35.4544 23.5884 35.4795 23.5628 35.5073C23.3011 35.5685 23.0424 35.6298 22.7808 35.6938C22.613 35.7467 22.4281 35.7356 22.2689 35.8247C21.9788 35.872 21.6859 35.9193 21.3959 35.9639C21.2253 35.9917 21.049 35.9778 20.884 36.0502C20.3921 36.0919 19.8973 36.1365 19.4053 36.1782C19.3456 36.1532 19.283 36.156 19.2233 36.1782C18.7313 36.1782 18.2394 36.1838 17.7446 36.1866C17.6052 36.156 17.4659 36.1393 17.3237 36.1504C17.2953 36.1504 17.264 36.1504 17.2356 36.1504C17.2185 36.1504 17.2014 36.1504 17.1872 36.1476C16.792 36.1114 16.3967 36.0752 16.0014 36.039C15.7711 35.9583 15.5237 35.9834 15.2905 35.9221C15.0147 35.872 14.736 35.8247 14.4601 35.7746C14.2696 35.7022 14.0705 35.6549 13.8686 35.6298C13.4051 35.4934 12.9416 35.3542 12.4781 35.2178C12.2449 35.137 12.0146 35.0535 11.7814 34.9728C11.3207 34.7751 10.86 34.5774 10.3994 34.3826C10.0752 34.1738 9.69128 34.0763 9.37278 33.8452C9.28747 33.784 9.19932 33.6921 9.0742 33.6921C8.5993 33.3831 8.12725 33.0741 7.65235 32.7678C7.41349 32.5869 7.17462 32.4059 6.93575 32.2249C6.87887 32.1888 6.85044 32.1108 6.76513 32.1108C6.61157 31.9354 6.4182 31.8073 6.23904 31.6598C6.15658 31.5846 6.07127 31.5095 5.9888 31.4343C5.84093 31.2979 5.69306 31.1615 5.54518 31.0278C5.4684 30.9248 5.37741 30.8329 5.26935 30.7578C5.13001 30.6158 4.99351 30.4766 4.85417 30.3346C4.78876 30.2399 4.72052 30.1481 4.62099 30.0813C4.48165 29.917 4.33946 29.75 4.20012 29.5857C4.14894 29.5245 4.09775 29.4632 4.04656 29.3992C3.86172 29.1653 3.67688 28.9315 3.49204 28.6976C3.32711 28.4665 3.16218 28.2327 3.00009 28.0016C2.96881 27.932 2.93753 27.8624 2.86928 27.8179C2.7925 27.6425 2.68444 27.4838 2.57353 27.3251C2.32898 26.8852 2.08726 26.4453 1.84271 26.0082C1.64081 25.5572 1.4389 25.1062 1.23985 24.6552C1.15738 24.4269 1.07207 24.1986 0.989602 23.9731C0.850262 23.5193 0.708077 23.0655 0.568737 22.6117C0.543144 22.3974 0.480583 22.1886 0.412334 21.9826C0.363992 21.7292 0.315649 21.4731 0.27015 21.2197C0.227495 20.9887 0.224651 20.7492 0.150715 20.5237L0.153559 20.521ZM1.99058 15.0643C1.89389 15.2981 1.89674 15.5487 1.85977 15.7909C1.82849 16.0303 1.79721 16.2698 1.76877 16.5092C1.75455 16.7208 1.73749 16.9351 1.72327 17.1467L1.71474 17.5059C1.67777 17.8984 1.67777 18.2882 1.71474 18.6807C1.7318 18.8645 1.68062 19.051 1.74602 19.232C1.74602 19.4575 1.74602 19.683 1.8029 19.9029C1.80005 20.1785 1.86546 20.4458 1.90811 20.7158C1.97636 21.1279 2.02186 21.5455 2.17257 21.938C2.20101 22.1747 2.25504 22.403 2.34888 22.6229C2.40007 22.8373 2.43988 23.0544 2.55078 23.2493C2.59913 23.4581 2.66169 23.6641 2.77544 23.8534C2.77544 23.898 2.7669 23.9425 2.80672 23.9759C2.88634 24.2237 2.9944 24.4603 3.10815 24.6914C3.29583 25.148 3.51764 25.5879 3.77641 26.011C3.89016 26.231 3.99822 26.4509 4.16031 26.643C4.42762 27.1469 4.77455 27.5979 5.12716 28.0461C5.23807 28.2048 5.34328 28.3719 5.49684 28.4972C5.55656 28.5751 5.59353 28.6698 5.68452 28.7227C5.8324 28.9203 5.99164 29.1096 6.18786 29.2655C6.25042 29.3324 6.31014 29.3992 6.3727 29.466C6.52341 29.6414 6.6855 29.8029 6.86465 29.9476C6.9329 30.0089 7.00115 30.0701 7.0694 30.1286C7.22865 30.3179 7.42202 30.4738 7.62392 30.6186C7.68079 30.7049 7.77463 30.7439 7.85426 30.8023C7.98222 30.9527 8.15 31.0557 8.31493 31.167C8.74149 31.4955 9.1851 31.8018 9.65431 32.069C9.66853 32.1136 9.70549 32.1136 9.74246 32.1136C9.94152 32.2667 10.1662 32.3808 10.3937 32.4894C10.8231 32.7428 11.2752 32.9599 11.7387 33.1437C11.9776 33.2578 12.2193 33.3608 12.4724 33.4388C12.5065 33.4805 12.552 33.4722 12.5975 33.4694C12.788 33.5808 12.9985 33.6392 13.2146 33.6893C13.4137 33.7979 13.6355 33.8369 13.8573 33.887C14.0848 33.965 14.3151 34.0429 14.5568 34.0596C14.8696 34.1821 15.2023 34.2155 15.5294 34.274C15.5749 34.2768 15.6204 34.2823 15.6659 34.2851C15.7057 34.3213 15.754 34.3324 15.8052 34.3185C16.0953 34.3575 16.3853 34.4327 16.6811 34.4215C16.8886 34.4828 17.1048 34.4744 17.318 34.4772C17.5029 34.544 17.6934 34.4911 17.8811 34.5078C18.265 34.544 18.6517 34.544 19.0356 34.5078C19.1721 34.5078 19.3115 34.5023 19.448 34.4995C19.6669 34.5273 19.8802 34.4494 20.0992 34.4549C20.3437 34.4243 20.5883 34.3937 20.8328 34.3659C21.0802 34.3297 21.3362 34.3324 21.575 34.2378C21.6973 34.2211 21.8196 34.2016 21.9419 34.1849C22.0414 34.1598 22.1381 34.1376 22.2376 34.1125L22.8689 33.9566C23.1049 33.9009 23.341 33.848 23.5656 33.7562C24.0377 33.6253 24.4898 33.4443 24.9448 33.2717C25.1581 33.1632 25.3998 33.1103 25.596 32.9655C25.7353 32.9349 25.8576 32.8681 25.9742 32.7901C26.1107 32.7567 26.2301 32.6954 26.3354 32.6036C26.8415 32.3781 27.3079 32.0885 27.76 31.7795C27.9136 31.6765 28.07 31.5763 28.2236 31.4733C28.2861 31.4287 28.3487 31.3814 28.4113 31.3368C28.9857 30.961 29.5032 30.5156 30.0037 30.0506C30.6691 29.4298 31.3033 28.7811 31.8379 28.0434C31.8692 27.9988 31.9033 27.9515 31.9346 27.9069C32.0995 27.7483 32.2218 27.5562 32.3441 27.3641C32.6512 26.927 32.9469 26.4843 33.1915 26.0082L33.3024 25.8217C33.382 25.6575 33.4958 25.5071 33.5441 25.3289C33.6834 25.1341 33.7687 24.9113 33.8569 24.6914C34.0673 24.2181 34.2806 23.7476 34.4143 23.2493C34.5166 23.0488 34.5735 22.8345 34.6076 22.6145C34.7584 22.1914 34.8778 21.7626 34.9375 21.3172C34.9972 21.1195 35.037 20.9163 35.0569 20.7103C35.0968 20.4402 35.165 20.173 35.1622 19.9001C35.2162 19.6802 35.2162 19.4547 35.219 19.2292C35.2816 18.987 35.2475 18.742 35.256 18.497C35.2844 18.2854 35.2844 18.0766 35.256 17.865C35.2532 17.6256 35.2475 17.3834 35.2446 17.1439C35.2304 16.9324 35.2133 16.718 35.1991 16.5064C35.1678 16.267 35.1366 16.0276 35.1081 15.7881C35.074 15.5543 35.0712 15.3176 34.9887 15.0921C34.9347 14.6356 34.7811 14.2012 34.6929 13.753C34.6247 13.5387 34.5564 13.3271 34.4882 13.1127C34.4171 12.8677 34.346 12.6255 34.2323 12.3944C34.1811 12.2023 34.1185 12.0158 34.0048 11.8488C34.0048 11.8126 34.0076 11.7764 33.9763 11.7513C33.9024 11.5314 33.8142 11.317 33.6834 11.1249C33.4901 10.6321 33.2114 10.1811 32.9412 9.72734C32.8474 9.55473 32.7507 9.38491 32.6227 9.23179C32.5829 9.13435 32.5232 9.04804 32.4436 8.97566C32.1678 8.51351 31.8407 8.08477 31.4739 7.68944C31.3943 7.56973 31.3146 7.45002 31.1952 7.3665C31.1127 7.2273 31.0047 7.10758 30.8739 7.01293C30.7687 6.86816 30.6407 6.74288 30.5042 6.62595C30.4189 6.51459 30.3194 6.41715 30.2056 6.33363C30.0862 6.2 29.9582 6.07472 29.8103 5.97171C29.7108 5.84364 29.5914 5.73785 29.4492 5.65711C29.361 5.54018 29.2388 5.46223 29.1193 5.38428C28.707 5.03349 28.2719 4.71333 27.8055 4.43493C27.7316 4.35976 27.6435 4.3013 27.5439 4.25954C27.3875 4.13426 27.2141 4.0396 27.0378 3.94773C26.6084 3.6916 26.1676 3.45218 25.7041 3.25729C25.4709 3.12088 25.2206 3.02065 24.9675 2.93157C24.942 2.89816 24.905 2.90094 24.868 2.90373C24.6974 2.79236 24.5069 2.7339 24.3107 2.681C24.0775 2.56964 23.8272 2.49726 23.5798 2.43044C23.3609 2.36363 23.1447 2.29681 22.9258 2.22999C22.8945 2.22999 22.8632 2.22721 22.8291 2.22443C22.6244 2.12977 22.3997 2.11028 22.1836 2.0546C21.9731 2.01563 21.7656 1.97665 21.5551 1.93767C21.3248 1.85694 21.0802 1.86529 20.8442 1.82074C20.5996 1.79012 20.3551 1.7595 20.1105 1.73166C19.8944 1.71774 19.6755 1.70103 19.4593 1.68711C19.1977 1.68433 18.9389 1.64814 18.6773 1.67598C18.4612 1.64535 18.2479 1.64814 18.0318 1.67598C17.7986 1.6899 17.5626 1.64814 17.3323 1.71217C17.1019 1.71217 16.8716 1.71217 16.6469 1.76785C16.3654 1.76506 16.0924 1.8291 15.8166 1.87086C15.6061 1.89034 15.4014 1.92932 15.1995 1.98778C14.7445 2.04625 14.3066 2.17153 13.8686 2.30238C13.6497 2.35249 13.4279 2.39147 13.2288 2.50004C12.717 2.62811 12.2364 2.84248 11.7558 3.04571C11.5311 3.13201 11.3036 3.21275 11.1046 3.35195C10.9197 3.39928 10.769 3.51064 10.6013 3.58859C10.5387 3.62478 10.4733 3.66098 10.4107 3.69717C9.9273 3.93938 9.47231 4.22613 9.02585 4.5268C8.82964 4.64652 8.63343 4.76345 8.47134 4.9277C8.42584 4.95833 8.37749 4.98895 8.332 5.02236C8.29218 5.04742 8.25237 5.0669 8.21825 5.09474C7.4988 5.66268 6.81347 6.26124 6.1907 6.93776C5.7613 7.40269 5.34328 7.8704 4.96792 8.37431C4.92242 8.43556 4.87407 8.49681 4.82858 8.55805C4.72336 8.70839 4.62099 8.86151 4.51577 9.01185C4.20012 9.45729 3.90722 9.91387 3.67404 10.4066C3.5802 10.5096 3.51764 10.6294 3.48351 10.7602C3.40673 10.8744 3.33564 10.9913 3.30436 11.1277C3.19061 11.2892 3.11383 11.4673 3.06549 11.6567C2.81809 12.1216 2.65884 12.6199 2.49675 13.1183C2.40291 13.3382 2.34888 13.5693 2.29201 13.8004C2.23798 14.0064 2.18679 14.2124 2.13276 14.4184C2.10717 14.5158 2.08442 14.6105 2.05883 14.7079C2.04177 14.8277 2.02186 14.9474 2.0048 15.0671L1.99058 15.0643Z" fill="#D57093"/>
<g clip-path="url(#clip1_59_472)">
<path d="M9.43534 26.9473C9.85129 25.4607 10.257 24.0059 10.6679 22.5529C10.6974 22.4486 10.6874 22.3682 10.6356 22.2756C8.30176 18.1288 9.69279 12.9984 13.8384 10.5245C15.6164 9.46358 17.5612 9.03653 19.6262 9.32881C23.1509 9.8274 25.6412 11.712 26.8916 14.9539C28.1153 18.1265 27.5332 21.1001 25.3168 23.7162C23.913 25.373 22.0729 26.3528 19.8978 26.6922C17.9641 26.9942 16.1163 26.6933 14.3714 25.8192C14.2512 25.7591 14.1486 25.7438 14.0162 25.7782C12.5596 26.1559 11.1011 26.5269 9.64289 26.8996C9.58392 26.9146 9.52437 26.9271 9.43506 26.9476L9.43534 26.9473ZM11.5908 24.8692C12.4922 24.6387 13.3618 24.4205 14.228 24.1912C14.3694 24.1537 14.4752 24.1748 14.5963 24.2453C16.3891 25.289 18.3061 25.5871 20.33 25.0905C24.207 24.139 26.616 20.3663 25.8099 16.542C25.1271 13.302 22.2526 10.8864 18.8836 10.7386C17.0007 10.656 15.3014 11.1762 13.8338 12.3359C12.1153 13.6938 11.1771 15.4675 11.0399 17.6216C10.9384 19.2139 11.3597 20.6852 12.2489 22.0249C12.32 22.1319 12.3365 22.224 12.301 22.3474C12.0623 23.1776 11.8315 24.0101 11.5905 24.8689L11.5908 24.8692Z" fill="#D57093"/>
<path d="M15.5307 13.9769C15.603 13.9769 15.6603 13.9824 15.7161 13.976C15.979 13.9452 16.1289 14.08 16.2228 14.2994C16.4065 14.7286 16.5897 15.1584 16.7729 15.588C16.8162 15.6898 16.848 15.7982 16.9047 15.8922C17.0538 16.1395 17.0082 16.3558 16.8298 16.5685C16.6626 16.7679 16.5106 16.9792 16.3439 17.1792C16.2333 17.3117 16.2256 17.4354 16.3141 17.5826C17.0462 18.8008 18.0785 19.6768 19.4239 20.2007C19.598 20.2686 19.7415 20.2403 19.8603 20.0956C20.0885 19.818 20.3267 19.5473 20.545 19.2625C20.6718 19.097 20.815 19.0543 21.0027 19.1292C21.6539 19.3882 22.2763 19.7068 22.9046 20.0138C23.0214 20.0709 23.0563 20.1668 23.0532 20.2875C23.0271 21.2272 22.7475 21.6701 21.7339 22.0894C21.156 22.3284 20.5552 22.2732 19.9587 22.1116C17.7947 21.5251 16.1993 20.1982 14.9222 18.4492C14.5185 17.8963 14.1538 17.3253 14.0041 16.6526C13.7926 15.702 14.0398 14.8803 14.76 14.1998C14.9826 13.9893 15.2534 13.9461 15.531 13.9774L15.5307 13.9769Z" fill="#D57093"/>
</g>
</g>
<defs>
<clipPath id="clip0_59_472">
<rect width="36.9565" height="36.1866" fill="white"/>
</clipPath>
<clipPath id="clip1_59_472">
<rect width="18.0851" height="17.7083" fill="white" transform="translate(9.43555 9.23901)"/>
</clipPath>
</defs>
</svg>
